<svg width="33" height="33" viewBox="0 0 33 33" xmlns="http://www.w3.org/2000/svg">
<g clip-path="url(#clip0_1_170)">
<path d="M10.3401 29.535C5.84385 27.4175 2.62635 23.045 2.13135 17.875H0.0688477C0.770098 26.345 7.85135 33 16.5001 33L17.4076 32.9587L12.1688 27.72L10.3401 29.535ZM11.5638 20.57C11.3026 20.57 11.0551 20.5288 10.8488 20.46C10.6288 20.3775 10.4501 20.2813 10.2988 20.13C10.1476 19.9925 10.0238 19.8275 9.94135 19.6213C9.85885 19.4288 9.8176 19.2088 9.8176 18.975H8.0301C8.0301 19.47 8.12635 19.91 8.31885 20.2812C8.51135 20.6525 8.7726 20.9687 9.08885 21.23C9.41885 21.4775 9.7901 21.67 10.2163 21.7938C10.6288 21.9313 11.0688 22 11.5363 22C12.0451 22 12.5263 21.9313 12.9526 21.7938C13.3926 21.6563 13.7776 21.45 14.0938 21.1887C14.4101 20.9275 14.6713 20.5975 14.8501 20.1987C15.0288 19.8 15.1251 19.36 15.1251 18.865C15.1251 18.6038 15.0976 18.3425 15.0288 18.095C14.9601 17.8475 14.8638 17.6137 14.7126 17.3937C14.5751 17.1737 14.3826 16.9813 14.1626 16.8025C13.9288 16.6238 13.6538 16.4862 13.3238 16.3762C13.5988 16.2525 13.8326 16.1012 14.0388 15.9225C14.2451 15.7437 14.4101 15.5512 14.5476 15.345C14.6851 15.1387 14.7813 14.9325 14.8501 14.7125C14.9188 14.4925 14.9463 14.2725 14.9463 14.0525C14.9463 13.5575 14.8638 13.1175 14.6988 12.7325C14.5338 12.3475 14.3001 12.0312 13.9976 11.7837C13.7226 11.5225 13.3513 11.33 12.9388 11.1925C12.5126 11.0688 12.0451 11 11.5363 11C11.0413 11 10.5876 11.0687 10.1613 11.22C9.74885 11.3712 9.3776 11.5775 9.0751 11.8387C8.78635 12.1 8.5526 12.4025 8.37385 12.76C8.20885 13.1175 8.12635 13.5025 8.12635 13.9288H9.91385C9.91385 13.695 9.9551 13.4888 10.0376 13.31C10.1201 13.1313 10.2301 12.9663 10.3813 12.8425C10.5326 12.7188 10.6976 12.6087 10.9038 12.54C11.1101 12.4712 11.3163 12.43 11.5638 12.43C12.1138 12.43 12.5263 12.5675 12.7876 12.8563C13.0488 13.1313 13.1863 13.53 13.1863 14.0388C13.1863 14.2863 13.1451 14.5062 13.0763 14.7125C13.0076 14.9187 12.8838 15.0837 12.7326 15.2212C12.5813 15.3587 12.3888 15.4688 12.1688 15.5513C11.9488 15.6338 11.6738 15.675 11.3713 15.675H10.3126V17.0913H11.3713C11.6738 17.0913 11.9488 17.1187 12.1963 17.1875C12.4438 17.2563 12.6501 17.3662 12.8151 17.5037C12.9801 17.655 13.1176 17.8338 13.2138 18.0538C13.3101 18.2738 13.3513 18.535 13.3513 18.8375C13.3513 19.4012 13.1863 19.8275 12.8701 20.1163C12.5538 20.4325 12.1138 20.57 11.5638 20.57ZM23.3201 12.43C22.8801 11.9762 22.3576 11.6188 21.7526 11.3713C21.1613 11.1238 20.4876 11 19.7451 11H16.5001V22H19.6626C20.4188 22 21.1201 21.8762 21.7388 21.6287C22.3576 21.3812 22.8938 21.0375 23.3338 20.5838C23.7738 20.13 24.1176 19.58 24.3513 18.9475C24.5851 18.3012 24.7088 17.5863 24.7088 16.7888V16.2388C24.7088 15.4413 24.5851 14.7262 24.3513 14.08C24.1038 13.4337 23.7601 12.8837 23.3201 12.43ZM22.7838 16.775C22.7838 17.3525 22.7151 17.8612 22.5913 18.3287C22.4538 18.7825 22.2613 19.1813 22.0001 19.4975C21.7388 19.8138 21.4088 20.0613 21.0238 20.2263C20.6251 20.3913 20.1713 20.4738 19.6626 20.4738H18.4113V12.54H19.7451C20.7351 12.54 21.4913 12.8563 22.0001 13.4888C22.5226 14.1213 22.7838 15.0288 22.7838 16.225V16.775ZM16.5001 0L15.5926 0.04125L20.8313 5.28L22.6601 3.45125C27.1563 5.5825 30.3738 9.94125 30.8551 15.1112H32.9176C32.2301 6.655 25.1488 0 16.5001 0Z" fill="black"/>
</g>
<defs>
<clipPath id="clip0_1_170">
<rect width="33" height="33" fill="white"/>
</clipPath>
</defs>
</svg>
