<svg width="25" height="25" viewBox="0 0 25 25" fill="none" xmlns="http://www.w3.org/2000/svg">
<path d="M1.63043 10.8696C0.729978 10.8696 0 11.5996 0 12.5C0 13.4004 0.729978 14.1304 1.63043 14.1304V10.8696ZM12.5 14.1304C13.4004 14.1304 14.1304 13.4004 14.1304 12.5C14.1304 11.5996 13.4004 10.8696 12.5 10.8696V14.1304ZM12.5 10.8696C11.5996 10.8696 10.8696 11.5996 10.8696 12.5C10.8696 13.4004 11.5996 14.1304 12.5 14.1304V10.8696ZM23.3696 14.1304C24.27 14.1304 25 13.4004 25 12.5C25 11.5996 24.27 10.8696 23.3696 10.8696V14.1304ZM14.1304 12.5C14.1304 11.5996 13.4004 10.8696 12.5 10.8696C11.5996 10.8696 10.8696 11.5996 10.8696 12.5H14.1304ZM10.8696 23.3696C10.8696 24.27 11.5996 25 12.5 25C13.4004 25 14.1304 24.27 14.1304 23.3696H10.8696ZM10.8696 12.5C10.8696 13.4004 11.5996 14.1304 12.5 14.1304C13.4004 14.1304 14.1304 13.4004 14.1304 12.5H10.8696ZM14.1304 1.63043C14.1304 0.729978 13.4004 0 12.5 0C11.5996 0 10.8696 0.729978 10.8696 1.63043H14.1304ZM1.63043 14.1304H12.5V10.8696H1.63043V14.1304ZM12.5 14.1304H23.3696V10.8696H12.5V14.1304ZM12.5 12.5H10.8696V12.5022C10.8696 12.5024 10.8696 12.5048 10.8696 12.5048C10.8696 12.5046 10.8696 12.505 10.8696 12.5048C10.8696 12.5048 10.8696 12.5072 10.8696 12.5074C10.8696 12.5072 10.8696 12.5076 10.8696 12.5074C10.8696 12.5076 10.8696 12.5093 10.8696 12.5096C10.8696 12.5098 10.8696 12.5117 10.8696 12.512C10.8696 12.5122 10.8696 12.5139 10.8696 12.5141C10.8696 12.5143 10.8696 12.5163 10.8696 12.5167C10.8696 12.517 10.8696 12.5189 10.8696 12.5193C10.8696 12.5196 10.8696 12.522 10.8696 12.5222C10.8696 12.5217 10.8696 12.5226 10.8696 12.5222C10.8696 12.5226 10.8696 12.5239 10.8696 12.5243C10.8696 12.5239 10.8696 12.5248 10.8696 12.5243C10.8696 12.5248 10.8696 12.5263 10.8696 12.5265C10.8696 12.5261 10.8696 12.527 10.8696 12.5265C10.8696 12.527 10.8696 12.5285 10.8696 12.5289C10.8696 12.5285 10.8696 12.5293 10.8696 12.5289C10.8696 12.5293 10.8696 12.5311 10.8696 12.5315C10.8696 12.5311 10.8696 12.532 10.8696 12.5315C10.8696 12.532 10.8696 12.5337 10.8696 12.5341C10.8696 12.5335 10.8696 12.5346 10.8696 12.5341C10.8696 12.5346 10.8696 12.5365 10.8696 12.537C10.8696 12.5365 10.8696 12.5374 10.8696 12.537C10.8696 12.5374 10.8696 12.5393 10.8696 12.54C10.8696 12.5393 10.8696 12.5404 10.8696 12.54C10.8696 12.5404 10.8696 12.5426 10.8696 12.543C10.8696 12.5426 10.8696 12.5435 10.8696 12.543C10.8696 12.5437 10.8696 12.5457 10.8696 12.5463C10.8696 12.5457 10.8696 12.547 10.8696 12.5463C10.8696 12.5467 10.8696 12.5491 10.8696 12.5498C10.8696 12.5491 10.8696 12.5502 10.8696 12.5498C10.8696 12.5504 10.8696 12.5526 10.8696 12.5533C10.8696 12.5526 10.8696 12.5539 10.8696 12.5533C10.8696 12.5539 10.8696 12.5565 10.8696 12.5572C10.8696 12.5565 10.8696 12.5578 10.8696 12.5572C10.8696 12.5578 10.8696 12.5604 10.8696 12.5611C10.8696 12.5604 10.8696 12.5617 10.8696 12.5611C10.8696 12.5617 10.8696 12.5643 10.8696 12.5652C10.8696 12.5646 10.8696 12.5659 10.8696 12.5652C10.8696 12.5661 10.8696 12.5687 10.8696 12.5693C10.8696 12.5702 10.8696 12.5709 10.8696 12.5717C10.8696 12.5724 10.8696 12.573 10.8696 12.5739C10.8696 12.5748 10.8696 12.5754 10.8696 12.5763C10.8696 12.577 10.8696 12.5778 10.8696 12.5785C10.8696 12.5793 10.8696 12.5802 10.8696 12.5811C10.8696 12.5817 10.8696 12.5826 10.8696 12.5835C10.8696 12.5843 10.8696 12.585 10.8696 12.5859C10.8696 12.5867 10.8696 12.5876 10.8696 12.5885C10.8696 12.5893 10.8696 12.5902 10.8696 12.5911C10.8696 12.592 10.8696 12.5928 10.8696 12.5937C10.8696 12.5946 10.8696 12.5957 10.8696 12.5965C10.8696 12.5974 10.8696 12.5983 10.8696 12.5991C10.8696 12.6002 10.8696 12.6011 10.8696 12.602C10.8696 12.603 10.8696 12.6039 10.8696 12.6048C10.8696 12.6059 10.8696 12.6067 10.8696 12.6078C10.8696 12.6087 10.8696 12.6098 10.8696 12.6107C10.8696 12.6117 10.8696 12.6128 10.8696 12.6137C10.8696 12.6148 10.8696 12.6159 10.8696 12.617C10.8696 12.6178 10.8696 12.6189 10.8696 12.62C10.8696 12.6211 10.8696 12.6222 10.8696 12.6233C10.8696 12.6241 10.8696 12.6252 10.8696 12.6263C10.8696 12.6274 10.8696 12.6287 10.8696 12.6298C10.8696 12.6309 10.8696 12.632 10.8696 12.633C10.8696 12.6341 10.8696 12.6352 10.8696 12.6365C10.8696 12.6376 10.8696 12.6387 10.8696 12.64C10.8696 12.6411 10.8696 12.6424 10.8696 12.6435C10.8696 12.6446 10.8696 12.6459 10.8696 12.647C10.8696 12.6483 10.8696 12.6496 10.8696 12.6507C10.8696 12.652 10.8696 12.6533 10.8696 12.6543C10.8696 12.6557 10.8696 12.657 10.8696 12.6583C10.8696 12.6593 10.8696 12.6607 10.8696 12.662C10.8696 12.6633 10.8696 12.6646 10.8696 12.6659C10.8696 12.6672 10.8696 12.6685 10.8696 12.6698C10.8696 12.6711 10.8696 12.6726 10.8696 12.6739C10.8696 12.6752 10.8696 12.6765 10.8696 12.6778C10.8696 12.6793 10.8696 12.6807 10.8696 12.682C10.8696 12.6835 10.8696 12.6848 10.8696 12.6863C10.8696 12.6876 10.8696 12.6891 10.8696 12.6904C10.8696 12.692 10.8696 12.6935 10.8696 12.6948C10.8696 12.6963 10.8696 12.6978 10.8696 12.6993C10.8696 12.7007 10.8696 12.7022 10.8696 12.7037C10.8696 12.7052 10.8696 12.7067 10.8696 12.7083C10.8696 12.7098 10.8696 12.7113 10.8696 12.7128C10.8696 12.7143 10.8696 12.7159 10.8696 12.7174C10.8696 12.7191 10.8696 12.7207 10.8696 12.7222C10.8696 12.7239 10.8696 12.7254 10.8696 12.727C10.8696 12.7287 10.8696 12.7302 10.8696 12.732C10.8696 12.7335 10.8696 12.7352 10.8696 12.7367C10.8696 12.7385 10.8696 12.7402 10.8696 12.7417C10.8696 12.7435 10.8696 12.7452 10.8696 12.747C10.8696 12.7487 10.8696 12.7502 10.8696 12.752C10.8696 12.7537 10.8696 12.7554 10.8696 12.7572C10.8696 12.7589 10.8696 12.7609 10.8696 12.7626C10.8696 12.7643 10.8696 12.7661 10.8696 12.7678C10.8696 12.7698 10.8696 12.7715 10.8696 12.7733C10.8696 12.7752 10.8696 12.777 10.8696 12.7789C10.8696 12.7807 10.8696 12.7826 10.8696 12.7843C10.8696 12.7863 10.8696 12.7883 10.8696 12.79C10.8696 12.792 10.8696 12.7939 10.8696 12.7959C10.8696 12.7976 10.8696 12.7996 10.8696 12.8015C10.8696 12.8035 10.8696 12.8054 10.8696 12.8074C10.8696 12.8093 10.8696 12.8113 10.8696 12.8135C10.8696 12.8154 10.8696 12.8174 10.8696 12.8193C10.8696 12.8215 10.8696 12.8235 10.8696 12.8254C10.8696 12.8276 10.8696 12.8296 10.8696 12.8317C10.8696 12.8337 10.8696 12.8359 10.8696 12.838C10.8696 12.84 10.8696 12.8422 10.8696 12.8443C10.8696 12.8465 10.8696 12.8485 10.8696 12.8507C10.8696 12.8528 10.8696 12.855 10.8696 12.8572C10.8696 12.8593 10.8696 12.8615 10.8696 12.8637C10.8696 12.8661 10.8696 12.8683 10.8696 12.8704C10.8696 12.8726 10.8696 12.875 10.8696 12.8772C10.8696 12.8793 10.8696 12.8817 10.8696 12.8839C10.8696 12.8863 10.8696 12.8885 10.8696 12.8909C10.8696 12.8933 10.8696 12.8954 10.8696 12.8978C10.8696 12.9002 10.8696 12.9026 10.8696 12.905C10.8696 12.9074 10.8696 12.9098 10.8696 12.9122C10.8696 12.9146 10.8696 12.917 10.8696 12.9193C10.8696 12.9217 10.8696 12.9241 10.8696 12.9265C10.8696 12.9291 10.8696 12.9315 10.8696 12.9341C10.8696 12.9365 10.8696 12.9389 10.8696 12.9415C10.8696 12.9439 10.8696 12.9465 10.8696 12.9491C10.8696 12.9515 10.8696 12.9541 10.8696 12.9567C10.8696 12.9593 10.8696 12.962 10.8696 12.9646C10.8696 12.9672 10.8696 12.9698 10.8696 12.9724C10.8696 12.975 10.8696 12.9776 10.8696 12.9802C10.8696 12.9828 10.8696 12.9854 10.8696 12.9883C10.8696 12.9909 10.8696 12.9937 10.8696 12.9963C10.8696 12.9991 10.8696 13.0017 10.8696 13.0046C10.8696 13.0072 10.8696 13.01 10.8696 13.0128C10.8696 13.0154 10.8696 13.0183 10.8696 13.0211C10.8696 13.0239 10.8696 13.0267 10.8696 13.0296C10.8696 13.0324 10.8696 13.0352 10.8696 13.038C10.8696 13.0409 10.8696 13.0439 10.8696 13.0467C10.8696 13.0496 10.8696 13.0526 10.8696 13.0554C10.8696 13.0585 10.8696 13.0613 10.8696 13.0643C10.8696 13.0672 10.8696 13.0702 10.8696 13.0733C10.8696 13.0761 10.8696 13.0791 10.8696 13.0822C10.8696 13.0852 10.8696 13.0883 10.8696 13.0913C10.8696 13.0943 10.8696 13.0974 10.8696 13.1004C10.8696 13.1035 10.8696 13.1067 10.8696 13.1098C10.8696 13.1128 10.8696 13.1161 10.8696 13.1191C10.8696 13.1224 10.8696 13.1254 10.8696 13.1287C10.8696 13.1317 10.8696 13.135 10.8696 13.1383C10.8696 13.1415 10.8696 13.1446 10.8696 13.1478C10.8696 13.1511 10.8696 13.1543 10.8696 13.1576C10.8696 13.1609 10.8696 13.1641 10.8696 13.1676C10.8696 13.1709 10.8696 13.1741 10.8696 13.1774C10.8696 13.1809 10.8696 13.1841 10.8696 13.1876C10.8696 13.1909 10.8696 13.1943 10.8696 13.1976C10.8696 13.2011 10.8696 13.2046 10.8696 13.208C10.8696 13.2113 10.8696 13.2148 10.8696 13.2183C10.8696 13.2217 10.8696 13.2252 10.8696 13.2287C10.8696 13.2322 10.8696 13.2359 10.8696 13.2393C10.8696 13.2428 10.8696 13.2465 10.8696 13.25C10.8696 13.2535 10.8696 13.2572 10.8696 13.2609C10.8696 13.2643 10.8696 13.268 10.8696 13.2717C10.8696 13.2752 10.8696 13.2789 10.8696 13.2826C10.8696 13.2863 10.8696 13.29 10.8696 13.2937C10.8696 13.2974 10.8696 13.3011 10.8696 13.3048C10.8696 13.3087 10.8696 13.3124 10.8696 13.3161C10.8696 13.32 10.8696 13.3237 10.8696 13.3276C10.8696 13.3313 10.8696 13.3352 10.8696 13.3389C10.8696 13.3428 10.8696 13.3467 10.8696 13.3507C10.8696 13.3546 10.8696 13.3585 10.8696 13.3624C10.8696 13.3663 10.8696 13.3702 10.8696 13.3741C10.8696 13.378 10.8696 13.382 10.8696 13.3861C10.8696 13.39 10.8696 13.3941 10.8696 13.398C10.8696 13.4022 10.8696 13.4061 10.8696 13.4102C10.8696 13.4143 10.8696 13.4183 10.8696 13.4224C10.8696 13.4265 10.8696 13.4307 10.8696 13.4348C10.8696 13.4389 10.8696 13.443 10.8696 13.4474C10.8696 13.4515 10.8696 13.4557 10.8696 13.4598C10.8696 13.4641 10.8696 13.4683 10.8696 13.4726C10.8696 13.4767 10.8696 13.4811 10.8696 13.4854C10.8696 13.4896 10.8696 13.4939 10.8696 13.4983C10.8696 13.5026 10.8696 13.507 10.8696 13.5113C10.8696 13.5157 10.8696 13.52 10.8696 13.5243C10.8696 13.5287 10.8696 13.5333 10.8696 13.5376C10.8696 13.5422 10.8696 13.5465 10.8696 13.5511C10.8696 13.5554 10.8696 13.56 10.8696 13.5646C10.8696 13.5689 10.8696 13.5735 10.8696 13.578C10.8696 13.5826 10.8696 13.5872 10.8696 13.5917C10.8696 13.5963 10.8696 13.6009 10.8696 13.6057C10.8696 13.6102 10.8696 13.6148 10.8696 13.6196C10.8696 13.6241 10.8696 13.6289 10.8696 13.6335C10.8696 13.6383 10.8696 13.643 10.8696 13.6478C10.8696 13.6524 10.8696 13.6572 10.8696 13.662C10.8696 13.6667 10.8696 13.6715 10.8696 13.6765C10.8696 13.6813 10.8696 13.6861 10.8696 13.6909C10.8696 13.6959 10.8696 13.7007 10.8696 13.7057C10.8696 13.7104 10.8696 13.7154 10.8696 13.7204C10.8696 13.7252 10.8696 13.7302 10.8696 13.7352C10.8696 13.7402 10.8696 13.7452 10.8696 13.7502C10.8696 13.7552 10.8696 13.7602 10.8696 13.7654C10.8696 13.7704 10.8696 13.7754 10.8696 13.7807C10.8696 13.7857 10.8696 13.7909 10.8696 13.7961C10.8696 13.8011 10.8696 13.8063 10.8696 13.8115C10.8696 13.8167 10.8696 13.822 10.8696 13.8272C10.8696 13.8324 10.8696 13.8376 10.8696 13.8428C10.8696 13.848 10.8696 13.8535 10.8696 13.8587C10.8696 13.8639 10.8696 13.8693 10.8696 13.8748C10.8696 13.88 10.8696 13.8854 10.8696 13.8909C10.8696 13.8961 10.8696 13.9015 10.8696 13.907C10.8696 13.9124 10.8696 13.9178 10.8696 13.9235C10.8696 13.9289 10.8696 13.9343 10.8696 13.9398C10.8696 13.9454 10.8696 13.9509 10.8696 13.9565C10.8696 13.962 10.8696 13.9676 10.8696 13.9733C10.8696 13.9789 10.8696 13.9843 10.8696 13.99C10.8696 13.9957 10.8696 14.0013 10.8696 14.0072C10.8696 14.0128 10.8696 14.0185 10.8696 14.0241C10.8696 14.03 10.8696 14.0357 10.8696 14.0415C10.8696 14.0472 10.8696 14.053 10.8696 14.0589C10.8696 14.0648 10.8696 14.0704 10.8696 14.0763C10.8696 14.0822 10.8696 14.088 10.8696 14.0939C10.8696 14.1 10.8696 14.1059 10.8696 14.1117C10.8696 14.1178 10.8696 14.1237 10.8696 14.1298C10.8696 14.1357 10.8696 14.1417 10.8696 14.1478C10.8696 14.1537 10.8696 14.1598 10.8696 14.1659C10.8696 14.172 10.8696 14.178 10.8696 14.1841C10.8696 14.1904 10.8696 14.1965 10.8696 14.2026C10.8696 14.2089 10.8696 14.215 10.8696 14.2213C10.8696 14.2274 10.8696 14.2337 10.8696 14.24C10.8696 14.2463 10.8696 14.2524 10.8696 14.2587C10.8696 14.265 10.8696 14.2715 10.8696 14.2778C10.8696 14.2841 10.8696 14.2904 10.8696 14.297C10.8696 14.3033 10.8696 14.3098 10.8696 14.3161C10.8696 14.3226 10.8696 14.3291 10.8696 14.3354C10.8696 14.342 10.8696 14.3485 10.8696 14.355C10.8696 14.3615 10.8696 14.368 10.8696 14.3748C10.8696 14.3813 10.8696 14.3878 10.8696 14.3946C10.8696 14.4011 10.8696 14.4078 10.8696 14.4146C10.8696 14.4211 10.8696 14.4278 10.8696 14.4346C10.8696 14.4413 10.8696 14.448 10.8696 14.4548C10.8696 14.4615 10.8696 14.4683 10.8696 14.4752C10.8696 14.482 10.8696 14.4887 10.8696 14.4957C10.8696 14.5024 10.8696 14.5093 10.8696 14.5163C10.8696 14.5233 10.8696 14.5302 10.8696 14.5372C10.8696 14.5439 10.8696 14.5511 10.8696 14.558C10.8696 14.565 10.8696 14.572 10.8696 14.5791C10.8696 14.5861 10.8696 14.5933 10.8696 14.6002C10.8696 14.6074 10.8696 14.6146 10.8696 14.6217C10.8696 14.6287 10.8696 14.6359 10.8696 14.643C10.8696 14.6504 10.8696 14.6576 10.8696 14.6648C10.8696 14.672 10.8696 14.6793 10.8696 14.6865C10.8696 14.6939 10.8696 14.7011 10.8696 14.7085C10.8696 14.7159 10.8696 14.7233 10.8696 14.7307C10.8696 14.738 10.8696 14.7454 10.8696 14.7528C10.8696 14.7602 10.8696 14.7678 10.8696 14.7752C10.8696 14.7826 10.8696 14.7902 10.8696 14.7978C10.8696 14.8052 10.8696 14.8128 10.8696 14.8204C10.8696 14.828 10.8696 14.8357 10.8696 14.8433C10.8696 14.8509 10.8696 14.8585 10.8696 14.8663C10.8696 14.8739 10.8696 14.8815 10.8696 14.8893C10.8696 14.8972 10.8696 14.9048 10.8696 14.9126C10.8696 14.9204 10.8696 14.9283 10.8696 14.9361C10.8696 14.9439 10.8696 14.9517 10.8696 14.9596C10.8696 14.9674 10.8696 14.9754 10.8696 14.9833C10.8696 14.9913 10.8696 14.9991 10.8696 15.0072C10.8696 15.0152 10.8696 15.0233 10.8696 15.0313C10.8696 15.0393 10.8696 15.0474 10.8696 15.0554C10.8696 15.0635 10.8696 15.0715 10.8696 15.0798C10.8696 15.0878 10.8696 15.0961 10.8696 15.1043C10.8696 15.1124 10.8696 15.1207 10.8696 15.1289C10.8696 15.1372 10.8696 15.1454 10.8696 15.1537C10.8696 15.162 10.8696 15.1702 10.8696 15.1787C10.8696 15.187 10.8696 15.1954 10.8696 15.2037C10.8696 15.2122 10.8696 15.2207 10.8696 15.2291C10.8696 15.2374 10.8696 15.2459 10.8696 15.2546C10.8696 15.263 10.8696 15.2715 10.8696 15.28C10.8696 15.2887 10.8696 15.2972 10.8696 15.3059C10.8696 15.3143 10.8696 15.323 10.8696 15.3317C10.8696 15.3404 10.8696 15.3491 10.8696 15.3578C10.8696 15.3665 10.8696 15.3752 10.8696 15.3839C10.8696 15.3928 10.8696 15.4015 10.8696 15.4104C10.8696 15.4191 10.8696 15.428 10.8696 15.437C10.8696 15.4457 10.8696 15.4546 10.8696 15.4635C10.8696 15.4726 10.8696 15.4815 10.8696 15.4904C10.8696 15.4993 10.8696 15.5085 10.8696 15.5174C10.8696 15.5265 10.8696 15.5357 10.8696 15.5446C10.8696 15.5537 10.8696 15.5628 10.8696 15.572C10.8696 15.5811 10.8696 15.5902 10.8696 15.5996C10.8696 15.6087 10.8696 15.6178 10.8696 15.6272C10.8696 15.6365 10.8696 15.6457 10.8696 15.655C10.8696 15.6643 10.8696 15.6737 10.8696 15.683C10.8696 15.6924 10.8696 15.7017 10.8696 15.7111C10.8696 15.7207 10.8696 15.73 10.8696 15.7396C10.8696 15.7489 10.8696 15.7585 10.8696 15.768C10.8696 15.7776 10.8696 15.7872 10.8696 15.7967C10.8696 15.8063 10.8696 15.8159 10.8696 15.8254C10.8696 15.8352 10.8696 15.8448 10.8696 15.8546C10.8696 15.8641 10.8696 15.8739 10.8696 15.8837C10.8696 15.8935 10.8696 15.9033 10.8696 15.913C10.8696 15.9228 10.8696 15.9326 10.8696 15.9426C10.8696 15.9524 10.8696 15.9624 10.8696 15.9722C10.8696 15.9822 10.8696 15.9922 10.8696 16.002C10.8696 16.012 10.8696 16.022 10.8696 16.0322C10.8696 16.0422 10.8696 16.0522 10.8696 16.0622C10.8696 16.0724 10.8696 16.0824 10.8696 16.0926C10.8696 16.1028 10.8696 16.113 10.8696 16.1233C10.8696 16.1333 10.8696 16.1437 10.8696 16.1539C10.8696 16.1641 10.8696 16.1743 10.8696 16.1848C10.8696 16.195 10.8696 16.2054 10.8696 16.2159C10.8696 16.2261 10.8696 16.2365 10.8696 16.247C10.8696 16.2574 10.8696 16.2678 10.8696 16.2785C10.8696 16.2889 10.8696 16.2993 10.8696 16.31C10.8696 16.3207 10.8696 16.3311 10.8696 16.3417C10.8696 16.3524 10.8696 16.363 10.8696 16.3737C10.8696 16.3843 10.8696 16.395 10.8696 16.4059C10.8696 16.4165 10.8696 16.4272 10.8696 16.438C10.8696 16.4489 10.8696 16.4596 10.8696 16.4704C10.8696 16.4813 10.8696 16.4922 10.8696 16.503C10.8696 16.5141 10.8696 16.525 10.8696 16.5359C10.8696 16.547 10.8696 16.5578 10.8696 16.5689C10.8696 16.58 10.8696 16.5911 10.8696 16.6022C10.8696 16.6133 10.8696 16.6243 10.8696 16.6354C10.8696 16.6465 10.8696 16.6578 10.8696 16.6689C10.8696 16.6802 10.8696 16.6915 10.8696 16.7026C10.8696 16.7139 10.8696 16.7252 10.8696 16.7365C10.8696 16.7478 10.8696 16.7593 10.8696 16.7707C10.8696 16.782 10.8696 16.7935 10.8696 16.805C10.8696 16.8163 10.8696 16.8278 10.8696 16.8393C10.8696 16.8509 10.8696 16.8624 10.8696 16.8739C10.8696 16.8857 10.8696 16.8972 10.8696 16.9087C10.8696 16.9204 10.8696 16.9322 10.8696 16.9437C10.8696 16.9554 10.8696 16.9672 10.8696 16.9789C10.8696 16.9907 10.8696 17.0026 10.8696 17.0143C10.8696 17.0261 10.8696 17.038 10.8696 17.0498C10.8696 17.0617 10.8696 17.0737 10.8696 17.0857C10.8696 17.0976 10.8696 17.1096 10.8696 17.1215C10.8696 17.1335 10.8696 17.1457 10.8696 17.1576C10.8696 17.1698 10.8696 17.1817 10.8696 17.1939C10.8696 17.2061 10.8696 17.2183 10.8696 17.2304C10.8696 17.2426 10.8696 17.2548 10.8696 17.2672C10.8696 17.2793 10.8696 17.2915 10.8696 17.3039C10.8696 17.3163 10.8696 17.3287 10.8696 17.3409C10.8696 17.3533 10.8696 17.3659 10.8696 17.3783C10.8696 17.3907 10.8696 17.403 10.8696 17.4157C10.8696 17.428 10.8696 17.4407 10.8696 17.4533C10.8696 17.4659 10.8696 17.4785 10.8696 17.4911C10.8696 17.5037 10.8696 17.5163 10.8696 17.5291C10.8696 17.5417 10.8696 17.5546 10.8696 17.5672C10.8696 17.58 10.8696 17.5928 10.8696 17.6057C10.8696 17.6185 10.8696 17.6313 10.8696 17.6441C10.8696 17.6572 10.8696 17.67 10.8696 17.683C10.8696 17.6959 10.8696 17.7089 10.8696 17.722C10.8696 17.735 10.8696 17.748 10.8696 17.7611C10.8696 17.7741 10.8696 17.7874 10.8696 17.8004C10.8696 17.8137 10.8696 17.8267 10.8696 17.84C10.8696 17.8533 10.8696 17.8665 10.8696 17.8798C10.8696 17.893 10.8696 17.9065 10.8696 17.9198C10.8696 17.933 10.8696 17.9465 10.8696 17.96C10.8696 17.9733 10.8696 17.9867 10.8696 18.0002C10.8696 18.0137 10.8696 18.0272 10.8696 18.0409C10.8696 18.0543 10.8696 18.0678 10.8696 18.0815C10.8696 18.0952 10.8696 18.1087 10.8696 18.1224C10.8696 18.1361 10.8696 18.1498 10.8696 18.1637C10.8696 18.1774 10.8696 18.1911 10.8696 18.205C10.8696 18.2187 10.8696 18.2326 10.8696 18.2465C10.8696 18.2604 10.8696 18.2743 10.8696 18.2883C10.8696 18.3022 10.8696 18.3161 10.8696 18.3302C10.8696 18.3441 10.8696 18.3583 10.8696 18.3724C10.8696 18.3863 10.8696 18.4004 10.8696 18.4148C10.8696 18.4289 10.8696 18.443 10.8696 18.4572C10.8696 18.4715 10.8696 18.4857 10.8696 18.5C10.8696 18.5143 10.8696 18.5287 10.8696 18.543C10.8696 18.5574 10.8696 18.5717 10.8696 18.5861C10.8696 18.6004 10.8696 18.615 10.8696 18.6296C10.8696 18.6439 10.8696 18.6585 10.8696 18.673C10.8696 18.6876 10.8696 18.7022 10.8696 18.7167C10.8696 18.7315 10.8696 18.7461 10.8696 18.7609C10.8696 18.7754 10.8696 18.7902 10.8696 18.805C10.8696 18.8198 10.8696 18.8346 10.8696 18.8493C10.8696 18.8643 10.8696 18.8791 10.8696 18.8941C10.8696 18.9089 10.8696 18.9239 10.8696 18.9389C10.8696 18.9539 10.8696 18.9689 10.8696 18.9839C10.8696 18.9989 10.8696 19.0139 10.8696 19.0291C10.8696 19.0441 10.8696 19.0593 10.8696 19.0746C10.8696 19.0898 10.8696 19.105 10.8696 19.1202C10.8696 19.1354 10.8696 19.1507 10.8696 19.1661C10.8696 19.1813 10.8696 19.1967 10.8696 19.2122C10.8696 19.2276 10.8696 19.243 10.8696 19.2585C10.8696 19.2739 10.8696 19.2893 10.8696 19.305C10.8696 19.3204 10.8696 19.3361 10.8696 19.3517C10.8696 19.3672 10.8696 19.3828 10.8696 19.3987C10.8696 19.4143 10.8696 19.43 10.8696 19.4457C10.8696 19.4615 10.8696 19.4772 10.8696 19.493C10.8696 19.5089 10.8696 19.5248 10.8696 19.5407C10.8696 19.5565 10.8696 19.5724 10.8696 19.5885C10.8696 19.6043 10.8696 19.6204 10.8696 19.6365C10.8696 19.6524 10.8696 19.6685 10.8696 19.6846C10.8696 19.7009 10.8696 19.717 10.8696 19.733C10.8696 19.7493 10.8696 19.7654 10.8696 19.7817C10.8696 19.798 10.8696 19.8143 10.8696 19.8307C10.8696 19.847 10.8696 19.8633 10.8696 19.8798C10.8696 19.8961 10.8696 19.9126 10.8696 19.9291C10.8696 19.9454 10.8696 19.962 10.8696 19.9785C10.8696 19.995 10.8696 20.0117 10.8696 20.0283C10.8696 20.045 10.8696 20.0615 10.8696 20.0783C10.8696 20.095 10.8696 20.1117 10.8696 20.1285C10.8696 20.1452 10.8696 20.162 10.8696 20.1789C10.8696 20.1957 10.8696 20.2126 10.8696 20.2296C10.8696 20.2463 10.8696 20.2633 10.8696 20.2804C10.8696 20.2974 10.8696 20.3143 10.8696 20.3315C10.8696 20.3485 10.8696 20.3657 10.8696 20.3826C10.8696 20.3998 10.8696 20.417 10.8696 20.4341C10.8696 20.4515 10.8696 20.4687 10.8696 20.4861C10.8696 20.5033 10.8696 20.5207 10.8696 20.538C10.8696 20.5552 10.8696 20.5726 10.8696 20.5902C10.8696 20.6076 10.8696 20.625 10.8696 20.6426C10.8696 20.66 10.8696 20.6776 10.8696 20.6952C10.8696 20.7128 10.8696 20.7304 10.8696 20.748C10.8696 20.7657 10.8696 20.7835 10.8696 20.8011C10.8696 20.8189 10.8696 20.8367 10.8696 20.8546C10.8696 20.8724 10.8696 20.8902 10.8696 20.908C10.8696 20.9259 10.8696 20.9439 10.8696 20.9617C10.8696 20.9798 10.8696 20.9978 10.8696 21.0159C10.8696 21.0339 10.8696 21.052 10.8696 21.07C10.8696 21.0883 10.8696 21.1063 10.8696 21.1246C10.8696 21.1428 10.8696 21.1611 10.8696 21.1793C10.8696 21.1976 10.8696 21.2159 10.8696 21.2341C10.8696 21.2526 10.8696 21.2709 10.8696 21.2893C10.8696 21.3078 10.8696 21.3263 10.8696 21.3448C10.8696 21.3633 10.8696 21.3817 10.8696 21.4004C10.8696 21.4189 10.8696 21.4376 10.8696 21.4563C10.8696 21.475 10.8696 21.4937 10.8696 21.5124C10.8696 21.5311 10.8696 21.5498 10.8696 21.5687C10.8696 21.5874 10.8696 21.6063 10.8696 21.6252C10.8696 21.6441 10.8696 21.663 10.8696 21.682C10.8696 21.7011 10.8696 21.72 10.8696 21.7391C10.8696 21.758 10.8696 21.7772 10.8696 21.7963C10.8696 21.8154 10.8696 21.8346 10.8696 21.8539C10.8696 21.873 10.8696 21.8922 10.8696 21.9115C10.8696 21.9309 10.8696 21.9502 10.8696 21.9696C10.8696 21.9889 10.8696 22.0083 10.8696 22.0278C10.8696 22.0472 10.8696 22.0667 10.8696 22.0863C10.8696 22.1057 10.8696 22.1252 10.8696 22.145C10.8696 22.1646 10.8696 22.1841 10.8696 22.2039C10.8696 22.2235 10.8696 22.2433 10.8696 22.263C10.8696 22.2828 10.8696 22.3026 10.8696 22.3224C10.8696 22.3422 10.8696 22.3622 10.8696 22.382C10.8696 22.402 10.8696 22.422 10.8696 22.442C10.8696 22.462 10.8696 22.482 10.8696 22.5022C10.8696 22.5222 10.8696 22.5424 10.8696 22.5624C10.8696 22.5826 10.8696 22.6028 10.8696 22.623C10.8696 22.6433 10.8696 22.6637 10.8696 22.6839C10.8696 22.7043 10.8696 22.7246 10.8696 22.745C10.8696 22.7654 10.8696 22.7859 10.8696 22.8063C10.8696 22.827 10.8696 22.8474 10.8696 22.868C10.8696 22.8885 10.8696 22.9091 10.8696 22.9298C10.8696 22.9504 10.8696 22.9711 10.8696 22.992C10.8696 23.0126 10.8696 23.0335 10.8696 23.0541C10.8696 23.075 10.8696 23.0959 10.8696 23.1167C10.8696 23.1376 10.8696 23.1587 10.8696 23.1796C10.8696 23.2007 10.8696 23.2215 10.8696 23.2426C10.8696 23.2637 10.8696 23.2848 10.8696 23.3061C10.8696 23.3272 10.8696 23.3483 10.8696 23.3696H14.1304C14.1304 23.3483 14.1304 23.3272 14.1304 23.3061C14.1304 23.2848 14.1304 23.2637 14.1304 23.2426C14.1304 23.2215 14.1304 23.2007 14.1304 23.1796C14.1304 23.1587 14.1304 23.1376 14.1304 23.1167C14.1304 23.0959 14.1304 23.075 14.1304 23.0541C14.1304 23.0335 14.1304 23.0126 14.1304 22.992C14.1304 22.9711 14.1304 22.9504 14.1304 22.9298C14.1304 22.9091 14.1304 22.8885 14.1304 22.868C14.1304 22.8474 14.1304 22.827 14.1304 22.8063C14.1304 22.7859 14.1304 22.7654 14.1304 22.745C14.1304 22.7246 14.1304 22.7043 14.1304 22.6839C14.1304 22.6637 14.1304 22.6433 14.1304 22.623C14.1304 22.6028 14.1304 22.5826 14.1304 22.5624C14.1304 22.5424 14.1304 22.5222 14.1304 22.5022C14.1304 22.482 14.1304 22.462 14.1304 22.442C14.1304 22.422 14.1304 22.402 14.1304 22.382C14.1304 22.3622 14.1304 22.3422 14.1304 22.3224C14.1304 22.3026 14.1304 22.2828 14.1304 22.263C14.1304 22.2433 14.1304 22.2235 14.1304 22.2039C14.1304 22.1841 14.1304 22.1646 14.1304 22.145C14.1304 22.1252 14.1304 22.1057 14.1304 22.0863C14.1304 22.0667 14.1304 22.0472 14.1304 22.0278C14.1304 22.0083 14.1304 21.9889 14.1304 21.9696C14.1304 21.9502 14.1304 21.9309 14.1304 21.9115C14.1304 21.8922 14.1304 21.873 14.1304 21.8539C14.1304 21.8346 14.1304 21.8154 14.1304 21.7963C14.1304 21.7772 14.1304 21.758 14.1304 21.7391C14.1304 21.72 14.1304 21.7011 14.1304 21.682C14.1304 21.663 14.1304 21.6441 14.1304 21.6252C14.1304 21.6063 14.1304 21.5874 14.1304 21.5687C14.1304 21.5498 14.1304 21.5311 14.1304 21.5124C14.1304 21.4937 14.1304 21.475 14.1304 21.4563C14.1304 21.4376 14.1304 21.4189 14.1304 21.4004C14.1304 21.3817 14.1304 21.3633 14.1304 21.3448C14.1304 21.3263 14.1304 21.3078 14.1304 21.2893C14.1304 21.2709 14.1304 21.2526 14.1304 21.2341C14.1304 21.2159 14.1304 21.1976 14.1304 21.1793C14.1304 21.1611 14.1304 21.1428 14.1304 21.1246C14.1304 21.1063 14.1304 21.0883 14.1304 21.07C14.1304 21.052 14.1304 21.0339 14.1304 21.0159C14.1304 20.9978 14.1304 20.9798 14.1304 20.9617C14.1304 20.9439 14.1304 20.9259 14.1304 20.908C14.1304 20.8902 14.1304 20.8724 14.1304 20.8546C14.1304 20.8367 14.1304 20.8189 14.1304 20.8011C14.1304 20.7835 14.1304 20.7657 14.1304 20.748C14.1304 20.7304 14.1304 20.7128 14.1304 20.6952C14.1304 20.6776 14.1304 20.66 14.1304 20.6426C14.1304 20.625 14.1304 20.6076 14.1304 20.5902C14.1304 20.5726 14.1304 20.5552 14.1304 20.538C14.1304 20.5207 14.1304 20.5033 14.1304 20.4861C14.1304 20.4687 14.1304 20.4515 14.1304 20.4341C14.1304 20.417 14.1304 20.3998 14.1304 20.3826C14.1304 20.3657 14.1304 20.3485 14.1304 20.3315C14.1304 20.3143 14.1304 20.2974 14.1304 20.2804C14.1304 20.2633 14.1304 20.2463 14.1304 20.2296C14.1304 20.2126 14.1304 20.1957 14.1304 20.1789C14.1304 20.162 14.1304 20.1452 14.1304 20.1285C14.1304 20.1117 14.1304 20.095 14.1304 20.0783C14.1304 20.0615 14.1304 20.045 14.1304 20.0283C14.1304 20.0117 14.1304 19.995 14.1304 19.9785C14.1304 19.962 14.1304 19.9454 14.1304 19.9291C14.1304 19.9126 14.1304 19.8961 14.1304 19.8798C14.1304 19.8633 14.1304 19.847 14.1304 19.8307C14.1304 19.8143 14.1304 19.798 14.1304 19.7817C14.1304 19.7654 14.1304 19.7493 14.1304 19.733C14.1304 19.717 14.1304 19.7009 14.1304 19.6846C14.1304 19.6685 14.1304 19.6524 14.1304 19.6365C14.1304 19.6204 14.1304 19.6043 14.1304 19.5885C14.1304 19.5724 14.1304 19.5565 14.1304 19.5407C14.1304 19.5248 14.1304 19.5089 14.1304 19.493C14.1304 19.4772 14.1304 19.4615 14.1304 19.4457C14.1304 19.43 14.1304 19.4143 14.1304 19.3987C14.1304 19.3828 14.1304 19.3672 14.1304 19.3517C14.1304 19.3361 14.1304 19.3204 14.1304 19.305C14.1304 19.2893 14.1304 19.2739 14.1304 19.2585C14.1304 19.243 14.1304 19.2276 14.1304 19.2122C14.1304 19.1967 14.1304 19.1813 14.1304 19.1661C14.1304 19.1507 14.1304 19.1354 14.1304 19.1202C14.1304 19.105 14.1304 19.0898 14.1304 19.0746C14.1304 19.0593 14.1304 19.0441 14.1304 19.0291C14.1304 19.0139 14.1304 18.9989 14.1304 18.9839C14.1304 18.9689 14.1304 18.9539 14.1304 18.9389C14.1304 18.9239 14.1304 18.9089 14.1304 18.8941C14.1304 18.8791 14.1304 18.8643 14.1304 18.8493C14.1304 18.8346 14.1304 18.8198 14.1304 18.805C14.1304 18.7902 14.1304 18.7754 14.1304 18.7609C14.1304 18.7461 14.1304 18.7315 14.1304 18.7167C14.1304 18.7022 14.1304 18.6876 14.1304 18.673C14.1304 18.6585 14.1304 18.6439 14.1304 18.6296C14.1304 18.615 14.1304 18.6004 14.1304 18.5861C14.1304 18.5717 14.1304 18.5574 14.1304 18.543C14.1304 18.5287 14.1304 18.5143 14.1304 18.5C14.1304 18.4857 14.1304 18.4715 14.1304 18.4572C14.1304 18.443 14.1304 18.4289 14.1304 18.4148C14.1304 18.4004 14.1304 18.3863 14.1304 18.3724C14.1304 18.3583 14.1304 18.3441 14.1304 18.3302C14.1304 18.3161 14.1304 18.3022 14.1304 18.2883C14.1304 18.2743 14.1304 18.2604 14.1304 18.2465C14.1304 18.2326 14.1304 18.2187 14.1304 18.205C14.1304 18.1911 14.1304 18.1774 14.1304 18.1637C14.1304 18.1498 14.1304 18.1361 14.1304 18.1224C14.1304 18.1087 14.1304 18.0952 14.1304 18.0815C14.1304 18.0678 14.1304 18.0543 14.1304 18.0409C14.1304 18.0272 14.1304 18.0137 14.1304 18.0002C14.1304 17.9867 14.1304 17.9733 14.1304 17.96C14.1304 17.9465 14.1304 17.933 14.1304 17.9198C14.1304 17.9065 14.1304 17.893 14.1304 17.8798C14.1304 17.8665 14.1304 17.8533 14.1304 17.84C14.1304 17.8267 14.1304 17.8137 14.1304 17.8004C14.1304 17.7874 14.1304 17.7741 14.1304 17.7611C14.1304 17.748 14.1304 17.735 14.1304 17.722C14.1304 17.7089 14.1304 17.6959 14.1304 17.683C14.1304 17.67 14.1304 17.6572 14.1304 17.6441C14.1304 17.6313 14.1304 17.6185 14.1304 17.6057C14.1304 17.5928 14.1304 17.58 14.1304 17.5672C14.1304 17.5546 14.1304 17.5417 14.1304 17.5291C14.1304 17.5163 14.1304 17.5037 14.1304 17.4911C14.1304 17.4785 14.1304 17.4659 14.1304 17.4533C14.1304 17.4407 14.1304 17.428 14.1304 17.4157C14.1304 17.403 14.1304 17.3907 14.1304 17.3783C14.1304 17.3659 14.1304 17.3533 14.1304 17.3409C14.1304 17.3287 14.1304 17.3163 14.1304 17.3039C14.1304 17.2915 14.1304 17.2793 14.1304 17.2672C14.1304 17.2548 14.1304 17.2426 14.1304 17.2304C14.1304 17.2183 14.1304 17.2061 14.1304 17.1939C14.1304 17.1817 14.1304 17.1698 14.1304 17.1576C14.1304 17.1457 14.1304 17.1335 14.1304 17.1215C14.1304 17.1096 14.1304 17.0976 14.1304 17.0857C14.1304 17.0737 14.1304 17.0617 14.1304 17.0498C14.1304 17.038 14.1304 17.0261 14.1304 17.0143C14.1304 17.0026 14.1304 16.9907 14.1304 16.9789C14.1304 16.9672 14.1304 16.9554 14.1304 16.9437C14.1304 16.9322 14.1304 16.9204 14.1304 16.9087C14.1304 16.8972 14.1304 16.8857 14.1304 16.8739C14.1304 16.8624 14.1304 16.8509 14.1304 16.8393C14.1304 16.8278 14.1304 16.8163 14.1304 16.805C14.1304 16.7935 14.1304 16.782 14.1304 16.7707C14.1304 16.7593 14.1304 16.7478 14.1304 16.7365C14.1304 16.7252 14.1304 16.7139 14.1304 16.7026C14.1304 16.6915 14.1304 16.6802 14.1304 16.6689C14.1304 16.6578 14.1304 16.6465 14.1304 16.6354C14.1304 16.6243 14.1304 16.6133 14.1304 16.6022C14.1304 16.5911 14.1304 16.58 14.1304 16.5689C14.1304 16.5578 14.1304 16.547 14.1304 16.5359C14.1304 16.525 14.1304 16.5141 14.1304 16.503C14.1304 16.4922 14.1304 16.4813 14.1304 16.4704C14.1304 16.4596 14.1304 16.4489 14.1304 16.438C14.1304 16.4272 14.1304 16.4165 14.1304 16.4059C14.1304 16.395 14.1304 16.3843 14.1304 16.3737C14.1304 16.363 14.1304 16.3524 14.1304 16.3417C14.1304 16.3311 14.1304 16.3207 14.1304 16.31C14.1304 16.2993 14.1304 16.2889 14.1304 16.2785C14.1304 16.2678 14.1304 16.2574 14.1304 16.247C14.1304 16.2365 14.1304 16.2261 14.1304 16.2159C14.1304 16.2054 14.1304 16.195 14.1304 16.1848C14.1304 16.1743 14.1304 16.1641 14.1304 16.1539C14.1304 16.1437 14.1304 16.1333 14.1304 16.1233C14.1304 16.113 14.1304 16.1028 14.1304 16.0926C14.1304 16.0824 14.1304 16.0724 14.1304 16.0622C14.1304 16.0522 14.1304 16.0422 14.1304 16.0322C14.1304 16.022 14.1304 16.012 14.1304 16.002C14.1304 15.9922 14.1304 15.9822 14.1304 15.9722C14.1304 15.9624 14.1304 15.9524 14.1304 15.9426C14.1304 15.9326 14.1304 15.9228 14.1304 15.913C14.1304 15.9033 14.1304 15.8935 14.1304 15.8837C14.1304 15.8739 14.1304 15.8641 14.1304 15.8546C14.1304 15.8448 14.1304 15.8352 14.1304 15.8254C14.1304 15.8159 14.1304 15.8063 14.1304 15.7967C14.1304 15.7872 14.1304 15.7776 14.1304 15.768C14.1304 15.7585 14.1304 15.7489 14.1304 15.7396C14.1304 15.73 14.1304 15.7207 14.1304 15.7111C14.1304 15.7017 14.1304 15.6924 14.1304 15.683C14.1304 15.6737 14.1304 15.6643 14.1304 15.655C14.1304 15.6457 14.1304 15.6365 14.1304 15.6272C14.1304 15.6178 14.1304 15.6087 14.1304 15.5996C14.1304 15.5902 14.1304 15.5811 14.1304 15.572C14.1304 15.5628 14.1304 15.5537 14.1304 15.5446C14.1304 15.5357 14.1304 15.5265 14.1304 15.5174C14.1304 15.5085 14.1304 15.4993 14.1304 15.4904C14.1304 15.4815 14.1304 15.4726 14.1304 15.4635C14.1304 15.4546 14.1304 15.4457 14.1304 15.437C14.1304 15.428 14.1304 15.4191 14.1304 15.4104C14.1304 15.4015 14.1304 15.3928 14.1304 15.3839C14.1304 15.3752 14.1304 15.3665 14.1304 15.3578C14.1304 15.3491 14.1304 15.3404 14.1304 15.3317C14.1304 15.323 14.1304 15.3143 14.1304 15.3059C14.1304 15.2972 14.1304 15.2887 14.1304 15.28C14.1304 15.2715 14.1304 15.263 14.1304 15.2546C14.1304 15.2459 14.1304 15.2374 14.1304 15.2291C14.1304 15.2207 14.1304 15.2122 14.1304 15.2037C14.1304 15.1954 14.1304 15.187 14.1304 15.1787C14.1304 15.1702 14.1304 15.162 14.1304 15.1537C14.1304 15.1454 14.1304 15.1372 14.1304 15.1289C14.1304 15.1207 14.1304 15.1124 14.1304 15.1043C14.1304 15.0961 14.1304 15.0878 14.1304 15.0798C14.1304 15.0715 14.1304 15.0635 14.1304 15.0554C14.1304 15.0474 14.1304 15.0393 14.1304 15.0313C14.1304 15.0233 14.1304 15.0152 14.1304 15.0072C14.1304 14.9991 14.1304 14.9913 14.1304 14.9833C14.1304 14.9754 14.1304 14.9674 14.1304 14.9596C14.1304 14.9517 14.1304 14.9439 14.1304 14.9361C14.1304 14.9283 14.1304 14.9204 14.1304 14.9126C14.1304 14.9048 14.1304 14.8972 14.1304 14.8893C14.1304 14.8815 14.1304 14.8739 14.1304 14.8663C14.1304 14.8585 14.1304 14.8509 14.1304 14.8433C14.1304 14.8357 14.1304 14.828 14.1304 14.8204C14.1304 14.8128 14.1304 14.8052 14.1304 14.7978C14.1304 14.7902 14.1304 14.7826 14.1304 14.7752C14.1304 14.7678 14.1304 14.7602 14.1304 14.7528C14.1304 14.7454 14.1304 14.738 14.1304 14.7307C14.1304 14.7233 14.1304 14.7159 14.1304 14.7085C14.1304 14.7011 14.1304 14.6939 14.1304 14.6865C14.1304 14.6793 14.1304 14.672 14.1304 14.6648C14.1304 14.6576 14.1304 14.6504 14.1304 14.643C14.1304 14.6359 14.1304 14.6287 14.1304 14.6217C14.1304 14.6146 14.1304 14.6074 14.1304 14.6002C14.1304 14.5933 14.1304 14.5861 14.1304 14.5791C14.1304 14.572 14.1304 14.565 14.1304 14.558C14.1304 14.5511 14.1304 14.5439 14.1304 14.5372C14.1304 14.5302 14.1304 14.5233 14.1304 14.5163C14.1304 14.5093 14.1304 14.5024 14.1304 14.4957C14.1304 14.4887 14.1304 14.482 14.1304 14.4752C14.1304 14.4683 14.1304 14.4615 14.1304 14.4548C14.1304 14.448 14.1304 14.4413 14.1304 14.4346C14.1304 14.4278 14.1304 14.4211 14.1304 14.4146C14.1304 14.4078 14.1304 14.4011 14.1304 14.3946C14.1304 14.3878 14.1304 14.3813 14.1304 14.3748C14.1304 14.368 14.1304 14.3615 14.1304 14.355C14.1304 14.3485 14.1304 14.342 14.1304 14.3354C14.1304 14.3291 14.1304 14.3226 14.1304 14.3161C14.1304 14.3098 14.1304 14.3033 14.1304 14.297C14.1304 14.2904 14.1304 14.2841 14.1304 14.2778C14.1304 14.2715 14.1304 14.265 14.1304 14.2587C14.1304 14.2524 14.1304 14.2463 14.1304 14.24C14.1304 14.2337 14.1304 14.2274 14.1304 14.2213C14.1304 14.215 14.1304 14.2089 14.1304 14.2026C14.1304 14.1965 14.1304 14.1904 14.1304 14.1841C14.1304 14.178 14.1304 14.172 14.1304 14.1659C14.1304 14.1598 14.1304 14.1537 14.1304 14.1478C14.1304 14.1417 14.1304 14.1357 14.1304 14.1298C14.1304 14.1237 14.1304 14.1178 14.1304 14.1117C14.1304 14.1059 14.1304 14.1 14.1304 14.0939C14.1304 14.088 14.1304 14.0822 14.1304 14.0763C14.1304 14.0704 14.1304 14.0648 14.1304 14.0589C14.1304 14.053 14.1304 14.0472 14.1304 14.0415C14.1304 14.0357 14.1304 14.03 14.1304 14.0241C14.1304 14.0185 14.1304 14.0128 14.1304 14.0072C14.1304 14.0013 14.1304 13.9957 14.1304 13.99C14.1304 13.9843 14.1304 13.9789 14.1304 13.9733C14.1304 13.9676 14.1304 13.962 14.1304 13.9565C14.1304 13.9509 14.1304 13.9454 14.1304 13.9398C14.1304 13.9343 14.1304 13.9289 14.1304 13.9235C14.1304 13.9178 14.1304 13.9124 14.1304 13.907C14.1304 13.9015 14.1304 13.8961 14.1304 13.8909C14.1304 13.8854 14.1304 13.88 14.1304 13.8748C14.1304 13.8693 14.1304 13.8639 14.1304 13.8587C14.1304 13.8535 14.1304 13.848 14.1304 13.8428C14.1304 13.8376 14.1304 13.8324 14.1304 13.8272C14.1304 13.822 14.1304 13.8167 14.1304 13.8115C14.1304 13.8063 14.1304 13.8011 14.1304 13.7961C14.1304 13.7909 14.1304 13.7857 14.1304 13.7807C14.1304 13.7754 14.1304 13.7704 14.1304 13.7654C14.1304 13.7602 14.1304 13.7552 14.1304 13.7502C14.1304 13.7452 14.1304 13.7402 14.1304 13.7352C14.1304 13.7302 14.1304 13.7252 14.1304 13.7204C14.1304 13.7154 14.1304 13.7104 14.1304 13.7057C14.1304 13.7007 14.1304 13.6959 14.1304 13.6909C14.1304 13.6861 14.1304 13.6813 14.1304 13.6765C14.1304 13.6715 14.1304 13.6667 14.1304 13.662C14.1304 13.6572 14.1304 13.6524 14.1304 13.6478C14.1304 13.643 14.1304 13.6383 14.1304 13.6335C14.1304 13.6289 14.1304 13.6241 14.1304 13.6196C14.1304 13.6148 14.1304 13.6102 14.1304 13.6057C14.1304 13.6009 14.1304 13.5963 14.1304 13.5917C14.1304 13.5872 14.1304 13.5826 14.1304 13.578C14.1304 13.5735 14.1304 13.5689 14.1304 13.5646C14.1304 13.56 14.1304 13.5554 14.1304 13.5511C14.1304 13.5465 14.1304 13.5422 14.1304 13.5376C14.1304 13.5333 14.1304 13.5287 14.1304 13.5243C14.1304 13.52 14.1304 13.5157 14.1304 13.5113C14.1304 13.507 14.1304 13.5026 14.1304 13.4983C14.1304 13.4939 14.1304 13.4896 14.1304 13.4854C14.1304 13.4811 14.1304 13.4767 14.1304 13.4726C14.1304 13.4683 14.1304 13.4641 14.1304 13.4598C14.1304 13.4557 14.1304 13.4515 14.1304 13.4474C14.1304 13.443 14.1304 13.4389 14.1304 13.4348C14.1304 13.4307 14.1304 13.4265 14.1304 13.4224C14.1304 13.4183 14.1304 13.4143 14.1304 13.4102C14.1304 13.4061 14.1304 13.4022 14.1304 13.398C14.1304 13.3941 14.1304 13.39 14.1304 13.3861C14.1304 13.382 14.1304 13.378 14.1304 13.3741C14.1304 13.3702 14.1304 13.3663 14.1304 13.3624C14.1304 13.3585 14.1304 13.3546 14.1304 13.3507C14.1304 13.3467 14.1304 13.3428 14.1304 13.3389C14.1304 13.3352 14.1304 13.3313 14.1304 13.3276C14.1304 13.3237 14.1304 13.32 14.1304 13.3161C14.1304 13.3124 14.1304 13.3087 14.1304 13.3048C14.1304 13.3011 14.1304 13.2974 14.1304 13.2937C14.1304 13.29 14.1304 13.2863 14.1304 13.2826C14.1304 13.2789 14.1304 13.2752 14.1304 13.2717C14.1304 13.268 14.1304 13.2643 14.1304 13.2609C14.1304 13.2572 14.1304 13.2535 14.1304 13.25C14.1304 13.2465 14.1304 13.2428 14.1304 13.2393C14.1304 13.2359 14.1304 13.2322 14.1304 13.2287C14.1304 13.2252 14.1304 13.2217 14.1304 13.2183C14.1304 13.2148 14.1304 13.2113 14.1304 13.208C14.1304 13.2046 14.1304 13.2011 14.1304 13.1976C14.1304 13.1943 14.1304 13.1909 14.1304 13.1876C14.1304 13.1841 14.1304 13.1809 14.1304 13.1774C14.1304 13.1741 14.1304 13.1709 14.1304 13.1676C14.1304 13.1641 14.1304 13.1609 14.1304 13.1576C14.1304 13.1543 14.1304 13.1511 14.1304 13.1478C14.1304 13.1446 14.1304 13.1415 14.1304 13.1383C14.1304 13.135 14.1304 13.1317 14.1304 13.1287C14.1304 13.1254 14.1304 13.1224 14.1304 13.1191C14.1304 13.1161 14.1304 13.1128 14.1304 13.1098C14.1304 13.1067 14.1304 13.1035 14.1304 13.1004C14.1304 13.0974 14.1304 13.0943 14.1304 13.0913C14.1304 13.0883 14.1304 13.0852 14.1304 13.0822C14.1304 13.0791 14.1304 13.0761 14.1304 13.0733C14.1304 13.0702 14.1304 13.0672 14.1304 13.0643C14.1304 13.0613 14.1304 13.0585 14.1304 13.0554C14.1304 13.0526 14.1304 13.0496 14.1304 13.0467C14.1304 13.0439 14.1304 13.0409 14.1304 13.038C14.1304 13.0352 14.1304 13.0324 14.1304 13.0296C14.1304 13.0267 14.1304 13.0239 14.1304 13.0211C14.1304 13.0183 14.1304 13.0154 14.1304 13.0128C14.1304 13.01 14.1304 13.0072 14.1304 13.0046C14.1304 13.0017 14.1304 12.9991 14.1304 12.9963C14.1304 12.9937 14.1304 12.9909 14.1304 12.9883C14.1304 12.9854 14.1304 12.9828 14.1304 12.9802C14.1304 12.9776 14.1304 12.975 14.1304 12.9724C14.1304 12.9698 14.1304 12.9672 14.1304 12.9646C14.1304 12.962 14.1304 12.9593 14.1304 12.9567C14.1304 12.9541 14.1304 12.9515 14.1304 12.9491C14.1304 12.9465 14.1304 12.9439 14.1304 12.9415C14.1304 12.9389 14.1304 12.9365 14.1304 12.9341C14.1304 12.9315 14.1304 12.9291 14.1304 12.9265C14.1304 12.9241 14.1304 12.9217 14.1304 12.9193C14.1304 12.917 14.1304 12.9146 14.1304 12.9122C14.1304 12.9098 14.1304 12.9074 14.1304 12.905C14.1304 12.9026 14.1304 12.9002 14.1304 12.8978C14.1304 12.8954 14.1304 12.8933 14.1304 12.8909C14.1304 12.8885 14.1304 12.8863 14.1304 12.8839C14.1304 12.8817 14.1304 12.8793 14.1304 12.8772C14.1304 12.875 14.1304 12.8726 14.1304 12.8704C14.1304 12.8683 14.1304 12.8661 14.1304 12.8637C14.1304 12.8615 14.1304 12.8593 14.1304 12.8572C14.1304 12.855 14.1304 12.8528 14.1304 12.8507C14.1304 12.8485 14.1304 12.8465 14.1304 12.8443C14.1304 12.8422 14.1304 12.84 14.1304 12.838C14.1304 12.8359 14.1304 12.8337 14.1304 12.8317C14.1304 12.8296 14.1304 12.8276 14.1304 12.8254C14.1304 12.8235 14.1304 12.8215 14.1304 12.8193C14.1304 12.8174 14.1304 12.8154 14.1304 12.8135C14.1304 12.8113 14.1304 12.8093 14.1304 12.8074C14.1304 12.8054 14.1304 12.8035 14.1304 12.8015C14.1304 12.7996 14.1304 12.7976 14.1304 12.7959C14.1304 12.7939 14.1304 12.792 14.1304 12.79C14.1304 12.7883 14.1304 12.7863 14.1304 12.7843C14.1304 12.7826 14.1304 12.7807 14.1304 12.7789C14.1304 12.777 14.1304 12.7752 14.1304 12.7733C14.1304 12.7715 14.1304 12.7698 14.1304 12.7678C14.1304 12.7661 14.1304 12.7643 14.1304 12.7626C14.1304 12.7609 14.1304 12.7589 14.1304 12.7572C14.1304 12.7554 14.1304 12.7537 14.1304 12.752C14.1304 12.7502 14.1304 12.7487 14.1304 12.747C14.1304 12.7452 14.1304 12.7435 14.1304 12.7417C14.1304 12.7402 14.1304 12.7385 14.1304 12.7367C14.1304 12.7352 14.1304 12.7335 14.1304 12.732C14.1304 12.7302 14.1304 12.7287 14.1304 12.727C14.1304 12.7254 14.1304 12.7239 14.1304 12.7222C14.1304 12.7207 14.1304 12.7191 14.1304 12.7174C14.1304 12.7159 14.1304 12.7143 14.1304 12.7128C14.1304 12.7113 14.1304 12.7098 14.1304 12.7083C14.1304 12.7067 14.1304 12.7052 14.1304 12.7037C14.1304 12.7022 14.1304 12.7007 14.1304 12.6993C14.1304 12.6978 14.1304 12.6963 14.1304 12.6948C14.1304 12.6935 14.1304 12.692 14.1304 12.6904C14.1304 12.6891 14.1304 12.6876 14.1304 12.6863C14.1304 12.6848 14.1304 12.6835 14.1304 12.682C14.1304 12.6807 14.1304 12.6793 14.1304 12.6778C14.1304 12.6765 14.1304 12.6752 14.1304 12.6739C14.1304 12.6726 14.1304 12.6711 14.1304 12.6698C14.1304 12.6685 14.1304 12.6672 14.1304 12.6659C14.1304 12.6646 14.1304 12.6633 14.1304 12.662C14.1304 12.6607 14.1304 12.6593 14.1304 12.6583C14.1304 12.657 14.1304 12.6557 14.1304 12.6543C14.1304 12.6533 14.1304 12.652 14.1304 12.6507C14.1304 12.6496 14.1304 12.6483 14.1304 12.647C14.1304 12.6459 14.1304 12.6446 14.1304 12.6435C14.1304 12.6424 14.1304 12.6411 14.1304 12.64C14.1304 12.6387 14.1304 12.6376 14.1304 12.6365C14.1304 12.6352 14.1304 12.6341 14.1304 12.633C14.1304 12.632 14.1304 12.6309 14.1304 12.6298C14.1304 12.6287 14.1304 12.6274 14.1304 12.6263C14.1304 12.6252 14.1304 12.6241 14.1304 12.6233C14.1304 12.6222 14.1304 12.6211 14.1304 12.62C14.1304 12.6189 14.1304 12.6178 14.1304 12.617C14.1304 12.6159 14.1304 12.6148 14.1304 12.6137C14.1304 12.6128 14.1304 12.6117 14.1304 12.6107C14.1304 12.6098 14.1304 12.6087 14.1304 12.6078C14.1304 12.6067 14.1304 12.6059 14.1304 12.6048C14.1304 12.6039 14.1304 12.603 14.1304 12.602C14.1304 12.6011 14.1304 12.6002 14.1304 12.5991C14.1304 12.5983 14.1304 12.5974 14.1304 12.5965C14.1304 12.5957 14.1304 12.5946 14.1304 12.5937C14.1304 12.5928 14.1304 12.592 14.1304 12.5911C14.1304 12.5902 14.1304 12.5893 14.1304 12.5885C14.1304 12.5876 14.1304 12.5867 14.1304 12.5859C14.1304 12.585 14.1304 12.5843 14.1304 12.5835C14.1304 12.5826 14.1304 12.5817 14.1304 12.5811C14.1304 12.5802 14.1304 12.5793 14.1304 12.5785C14.1304 12.5778 14.1304 12.577 14.1304 12.5763C14.1304 12.5754 14.1304 12.5748 14.1304 12.5739C14.1304 12.573 14.1304 12.5724 14.1304 12.5717C14.1304 12.5709 14.1304 12.5702 14.1304 12.5693C14.1304 12.5687 14.1304 12.568 14.1304 12.5672C14.1304 12.5665 14.1304 12.5678 14.1304 12.5672C14.1304 12.5663 14.1304 12.5637 14.1304 12.563C14.1304 12.5624 14.1304 12.5637 14.1304 12.563C14.1304 12.5624 14.1304 12.5598 14.1304 12.5591C14.1304 12.5585 14.1304 12.5598 14.1304 12.5591C14.1304 12.5585 14.1304 12.5559 14.1304 12.5552C14.1304 12.5546 14.1304 12.5559 14.1304 12.5552C14.1304 12.5546 14.1304 12.5522 14.1304 12.5515C14.1304 12.5509 14.1304 12.552 14.1304 12.5515C14.1304 12.5509 14.1304 12.5485 14.1304 12.548C14.1304 12.5474 14.1304 12.5487 14.1304 12.548C14.1304 12.5474 14.1304 12.5452 14.1304 12.5446C14.1304 12.5441 14.1304 12.545 14.1304 12.5446C14.1304 12.5441 14.1304 12.542 14.1304 12.5415C14.1304 12.5409 14.1304 12.542 14.1304 12.5415C14.1304 12.5409 14.1304 12.5389 14.1304 12.5385C14.1304 12.538 14.1304 12.5389 14.1304 12.5385C14.1304 12.538 14.1304 12.5361 14.1304 12.5357C14.1304 12.535 14.1304 12.5361 14.1304 12.5357C14.1304 12.5352 14.1304 12.5333 14.1304 12.5328C14.1304 12.5324 14.1304 12.5333 14.1304 12.5328C14.1304 12.5324 14.1304 12.5307 14.1304 12.5302C14.1304 12.5298 14.1304 12.5307 14.1304 12.5302C14.1304 12.5298 14.1304 12.5283 14.1304 12.5278C14.1304 12.5274 14.1304 12.5283 14.1304 12.5278C14.1304 12.5276 14.1304 12.5259 14.1304 12.5254C14.1304 12.525 14.1304 12.5226 14.1304 12.5222C14.1304 12.522 14.1304 12.5196 14.1304 12.5193C14.1304 12.5191 14.1304 12.517 14.1304 12.5167C14.1304 12.5165 14.1304 12.5146 14.1304 12.5141C14.1304 12.5139 14.1304 12.5124 14.1304 12.512C14.1304 12.5117 14.1304 12.5098 14.1304 12.5096C14.1304 12.5093 14.1304 12.5098 14.1304 12.5096C14.1304 12.5093 14.1304 12.5076 14.1304 12.5074C14.1304 12.5072 14.1304 12.505 14.1304 12.5048C14.1304 12.5048 14.1304 12.5028 14.1304 12.5026C14.1304 12.5024 14.1304 12.5 14.1304 12.5H12.5ZM14.1304 12.5V1.63043H10.8696V12.5H14.1304Z" fill="#1C274C"/>
</svg>
