<svg width="222" height="326" viewBox="0 0 222 326" fill="none" xmlns="http://www.w3.org/2000/svg">
<path fill-rule="evenodd" clip-rule="evenodd" d="M200.917 320.2C199.452 322.425 196.571 322.084 195.334 320.359C181.249 323.642 166.809 322.348 152.528 321.543C112.286 319.905 71.8164 325.041 31.7369 319.668C27.4848 318.818 22.5358 319.224 19.0581 316.275C13.4938 309.752 14.6916 299.848 15.5778 291.903C22.6831 247.118 32.7835 201.921 37.8219 156.848C38.1032 152.555 36.3348 147.221 34.7491 143.185C34.3573 142.434 31.8828 141.698 30.5983 140.832C26.6564 138.002 27.2954 132.929 30.7126 129.952C41.7768 122.15 57.1785 124.877 68.9159 127.755C71.1655 119.304 73.6939 113.746 77.9763 113.195C86.1268 112.147 105.9 108.946 111.991 113.195C114.904 115.228 116.775 122.391 118.872 125.88C134.169 125.608 165.214 105.135 171.597 128.191C176.782 128.548 181.918 133.078 180.926 138.512C187.652 144.457 182.347 153.372 182.44 160.772C183.324 176.472 191.817 190.513 195.35 205.679C203.426 235.094 212.566 288.602 202.55 317.315C202.765 317.202 203.236 317.371 202.931 317.609C201.797 317.93 201.649 319.359 200.917 320.2Z" fill="white"/>
<path fill-rule="evenodd" clip-rule="evenodd" d="M25.0549 312.72C26.9338 297.632 28.2394 279.418 28.2552 264.204C28.2565 262.772 26.0344 262.774 26.0331 264.204C26.0173 279.418 24.7117 297.632 22.8328 312.72C22.6567 314.137 24.88 314.12 25.0549 312.72ZM38.9709 219.17C41.874 220.945 45.6857 219.713 48.5585 218.538C49.8668 218.003 49.2909 215.853 47.9682 216.395C45.7816 217.289 42.5866 218.608 40.2791 217.359C37.9756 216.113 37.8717 212.686 37.8546 210.424C37.8441 208.991 35.6221 208.992 35.6326 210.424C35.6562 213.501 36.0678 217.393 38.9709 219.17ZM44.3445 288.213C47.2726 286.711 49.7721 284.659 51.7824 282.053C52.6568 280.919 50.7253 279.814 49.8641 280.93C48.0944 283.224 45.7882 284.978 43.223 286.293C41.9476 286.947 43.0744 288.865 44.3445 288.213ZM58.4209 210.627C63.4462 230.771 66.8187 251.276 68.4714 271.973C68.8067 276.174 69.0434 280.371 69.1761 284.569C69.3103 285.665 69.4378 286.762 69.5574 287.859C70.0097 292.011 70.3568 296.229 70.3266 300.409C70.3135 302.285 70.2543 304.152 70.1267 306.022C70.349 305.397 70.5541 304.769 70.7539 304.144C71.1628 302.862 71.4324 301.534 71.8492 300.262C72.1936 299.208 72.638 298.2 73.0522 297.18V297.177C72.9273 293 73.21 288.785 73.3546 284.627C73.54 279.242 73.7714 273.863 73.8911 268.475C74.129 257.697 74.0107 246.913 73.6215 236.142C72.8405 214.44 70.8683 192.839 68.879 171.224C68.3268 165.214 67.7325 159.207 67.3209 153.184C66.9068 147.099 66.7411 141.002 66.6938 134.9C66.6911 134.461 67.3577 134.344 67.48 134.769C67.5878 133.321 67.7798 131.876 68.0993 130.478C63.3068 133.535 58.254 136.178 53.3024 138.956C50.6938 140.421 48.0957 141.911 45.4069 143.223C43.9291 143.945 42.438 144.609 40.9155 145.237C39.3377 145.888 37.8296 146.782 36.0928 146.328C35.9429 146.29 35.8022 146.235 35.6655 146.163C35.8627 146.537 36.0599 146.91 36.2492 147.288C36.904 148.591 37.5298 149.899 38.1347 151.22C38.2964 151.339 38.4384 151.503 38.5488 151.718C38.8434 152.292 39.13 152.874 39.4074 153.463C39.4626 153.41 39.5179 153.357 39.5744 153.303C39.8071 153.085 40.1292 153.415 39.9241 153.655C39.8295 153.762 39.7374 153.869 39.6467 153.977C41.4572 157.875 42.9298 161.975 44.4458 165.976C46.3102 170.894 48.0773 175.849 49.7405 180.837C53.021 190.649 55.9162 200.589 58.4209 210.627ZM130.262 283.732C139.524 288.693 148.178 294.622 156.502 301.019C157.637 301.891 158.743 299.958 157.624 299.099C149.3 292.703 140.646 286.773 131.384 281.812C130.123 281.136 129.002 283.056 130.262 283.732ZM161.543 225.621C162.025 225.584 162.493 225.305 162.615 224.804C163.365 221.732 163.953 218.384 163.255 215.25C162.944 213.852 160.802 214.448 161.112 215.841C161.662 218.312 161.225 220.984 160.654 223.449C152.576 223.803 144.607 220.902 136.879 218.955C135.489 218.605 134.902 220.75 136.288 221.099C144.486 223.165 152.965 226.256 161.543 225.621ZM0.737396 307.586C0.729507 307.567 0.721619 307.544 0.715042 307.526C0.240387 306.086 0.229858 304.414 0.177261 302.904C0.0852356 300.22 0.182526 297.529 0.424454 294.854C0.934601 289.221 2.03511 283.681 3.3486 278.186C5.95193 267.304 9.62949 256.716 11.6267 245.688C15.5461 224.038 14.6153 201.495 22.3069 180.612C25.5046 171.93 30.0709 163.585 36.2768 156.689C35.8245 155.31 35.3828 153.929 34.9515 152.542C34.1994 150.131 33.4289 147.641 32.9661 145.157C32.9543 145.09 32.9411 145.02 32.9319 144.95C30.2905 143.812 27.8883 141.663 27.4768 138.806C27.2993 137.573 27.5044 136.206 28.0382 135.013C26.9495 134.007 26.2487 132.702 26.4157 130.95C26.7273 127.655 30.5745 126.807 33.2514 126.163C36.2965 125.432 39.4547 125.23 42.5682 125.574C44.1407 125.746 45.6962 126.036 47.2161 126.468C48.5348 126.844 49.9706 127.229 51.0291 128.137C51.154 128.242 51.0514 128.447 50.9015 128.447C48.7597 128.439 46.6271 127.653 44.4629 127.549C42.1961 127.444 39.9346 127.63 37.7126 128.097C35.5405 128.553 33.3737 129.22 31.3989 130.251C30.844 130.543 30.0301 130.74 30.6823 131.329C31.1596 131.76 32.0984 131.796 32.7124 131.86C34.0706 132.001 35.2434 132.796 35.4156 134.247C35.5681 135.527 34.8042 136.979 33.4434 137.267C33.3685 137.284 33.2988 137.304 33.2383 137.328C33.2015 137.398 33.1463 137.456 33.1515 137.361C33.1515 137.361 33.1489 137.359 33.1489 137.361C33.116 137.565 33.1042 137.645 33.1042 137.659C33.1134 137.643 33.1265 137.573 33.1384 137.518C33.1292 137.568 33.1134 137.648 33.091 137.768C33.1213 137.637 33.0963 137.957 33.1213 138.007C33.8431 139.34 35.9797 139.716 37.2235 140.291C37.4654 140.401 37.6745 140.533 37.852 140.68C38.1465 140.577 38.4463 140.474 38.7487 140.36C40.241 139.802 41.7294 139.26 43.2401 138.756C46.1577 137.781 49.1107 136.912 52.027 135.933C57.5492 134.082 62.8874 131.746 68.307 129.628C68.4793 128.989 68.6791 128.364 68.9158 127.755C68.9631 127.628 69.1906 127.586 69.2156 127.755C69.2984 128.294 69.3655 128.836 69.4207 129.38C69.443 129.43 69.4496 129.487 69.4378 129.54C69.752 132.707 69.6679 135.951 69.8296 139.115C70.0294 143.061 70.5883 146.979 70.746 150.928V151C71.3298 154.371 71.8571 157.753 72.3356 161.146C72.8708 160.979 73.4848 161.012 74.1133 161.349C78.5521 163.719 83.5405 165.04 88.5605 165.334C91.0875 165.481 93.5909 165.398 96.1049 165.107C97.7576 164.917 99.3853 164.573 101.016 164.244C100.157 160.645 99.2354 157.064 98.1928 153.518C97.3355 150.603 96.3797 147.702 95.199 144.898C94.0077 142.066 92.5246 139.363 91.1441 136.617C90.5077 135.347 91.2571 133.405 92.9099 133.538C93.399 133.577 93.8881 133.608 94.3798 133.63C99.1631 133.857 104.138 133.325 108.86 132.849C114.235 132.305 119.682 131.741 125.01 130.854C125.404 130.79 125.566 131.326 125.177 131.457C122.648 132.307 120.152 133.268 117.56 133.905C114.894 134.563 112.21 135.164 109.504 135.634C106.913 136.081 104.311 136.455 101.699 136.772C99.9967 136.981 98.2743 137.087 96.5598 137.226C98.8686 140.915 100.46 145.078 101.847 149.178C103.627 154.441 104.935 159.857 106.216 165.262C108.955 176.847 111.213 188.548 112.979 200.323C114.247 208.765 115.271 217.24 116.04 225.738C116.269 223.157 116.546 220.584 116.861 218.013C117.91 209.479 119.443 201.001 121.494 192.651C121.31 192.327 121.224 191.942 121.285 191.566C121.654 189.272 122.627 187.273 123.479 185.144C124.327 182.172 125.241 179.217 126.225 176.285C127.341 172.292 128.594 168.359 130.197 164.52C131.421 161.593 132.818 158.742 134.374 155.978C136.232 152.112 138.274 148.331 140.516 144.715C140.632 144.379 140.821 144.064 141.091 143.8C141.499 143.156 141.913 142.519 142.335 141.888C142.61 141.477 143.399 141.728 143.191 142.25C143.093 142.494 142.996 142.739 142.896 142.981C152.027 140.697 160.98 144.189 169.677 146.769C171.871 147.421 174.088 148.01 176.338 148.436C178.107 148.769 180.168 149.175 181.932 148.808C183.113 148.564 183.635 148.027 183.06 146.765C182.466 145.459 180.843 144.601 179.435 144.024C178.905 143.909 178.382 143.705 177.88 143.4C176.707 142.689 176.193 141.205 176.746 139.941C177.249 138.798 178.716 137.815 180.013 138.337C180.199 138.412 180.382 138.484 180.566 138.557C180.585 138.529 180.607 138.489 180.627 138.434C180.813 137.925 180.893 138.534 180.813 137.806C180.68 136.617 179.421 135.536 178.56 134.855C176.418 133.158 173.324 131.901 170.56 132.544C170.352 132.59 170.143 132.649 169.938 132.721C167.091 133.707 165.705 129.607 167.98 128.077C168.118 127.985 168.293 127.87 168.485 127.733C169.432 127.074 170.818 125.966 170.441 124.965C169.974 123.723 167.221 123.009 166.179 122.587C162.413 121.058 158.343 120.191 154.282 120.014C150.196 119.835 146.057 120.286 142.116 121.389C140.182 121.928 138.196 122.747 136.368 123.576C134.727 124.318 131.155 125.299 130.926 127.378C130.876 127.836 130.224 127.992 130.082 127.491C128.963 123.501 133.308 120.925 136.174 119.277C138.055 118.193 140.188 117.518 142.252 116.854C144.23 116.215 146.249 115.744 148.31 115.462C152.735 114.856 157.213 114.933 161.602 115.784C165.599 116.56 170.046 117.882 173.277 120.455C175.26 122.033 176.157 124.546 175.36 126.997C175.332 127.077 175.305 127.161 175.277 127.241C178.846 127.88 182.224 129.926 184.482 132.777C186.338 135.12 187.31 138.379 185.649 141.105C185.718 141.155 185.788 141.207 185.855 141.264C187.438 142.53 188.616 144.371 188.966 146.382C189.652 150.35 187.255 153.126 183.902 154.188C184.732 155 185.529 155.861 186.31 156.722C188.057 158.653 189.727 160.757 191.199 162.903C194.182 167.248 196.732 171.98 198.963 176.749C203.549 186.542 206.441 197.083 207.974 207.77C208.746 213.155 209.263 218.568 209.46 224.004C209.688 230.2 209.457 236.401 209.577 242.6C209.693 248.558 210.352 254.372 211.682 260.18C212.957 265.735 214.657 271.178 216.196 276.661C217.932 282.835 219.843 288.982 220.76 295.348C221.224 298.588 221.557 301.837 221.299 305.113C221.038 308.45 219.827 311.305 218.71 314.409C218.427 315.201 217.563 315.52 216.871 315.35C216.716 316.838 216.155 318.288 215.318 319.545C213.543 322.206 210.81 323.905 207.68 324.521C204.152 325.213 200.516 325.049 196.943 324.921C193.068 324.783 189.191 324.657 185.316 324.496C181.259 324.328 177.202 324.156 173.145 323.984C173.279 319.823 173.439 315.665 173.62 311.507C174.598 289.031 176.138 266.541 176.179 244.035C176.258 243.989 176.335 243.934 176.409 243.863C178.235 242.097 180.478 240.936 182.584 239.554C183.776 238.772 182.662 236.848 181.463 237.634C179.686 238.801 177.836 239.835 176.171 241.141C176.161 238.798 176.141 236.456 176.095 234.113C176.066 232.681 173.844 232.681 173.872 234.113C174.012 241.174 173.965 248.237 173.805 255.298C173.288 278.178 171.663 301.016 170.923 323.888C160.035 323.422 149.145 322.954 138.255 322.556C129.396 322.234 120.538 321.911 111.68 321.589C109.821 321.524 108.777 320.194 108.55 318.457C108.133 315.261 108.915 311.958 110.687 309.271C110.872 308.993 111.088 308.746 111.329 308.534C111.288 306.62 111.209 304.702 111.319 302.787C111.479 299.865 111.721 296.94 111.933 294.02C112.36 288.171 112.691 282.31 112.821 276.446C113.088 264.72 112.894 252.982 112.23 241.272C110.899 217.877 107.801 194.632 102.733 171.748C102.363 170.081 101.991 168.413 101.605 166.749C97.6629 168.796 92.8678 169.532 88.5605 169.56C83.1605 169.594 77.8789 168.352 73.0022 166.093C73.0351 166.345 73.068 166.595 73.0995 166.849C74.4604 177.685 75.6069 188.546 76.6075 199.419C78.602 221.098 79.8235 242.865 79.6539 264.639C79.6079 270.672 79.3765 276.686 79.0912 282.71C78.7993 288.837 78.3522 295.313 76.6456 301.223C76.4576 301.876 76.0382 302.251 75.5543 302.388C75.5293 303.249 75.4741 304.113 75.4123 304.963C75.2151 307.728 74.6523 313.473 73.4467 315.979C72.2712 318.425 70.3135 320.364 67.8153 321.431C64.644 322.784 61.2123 322.395 57.8635 322.178C43.2966 321.228 28.7403 319.955 14.1827 318.839C12.1539 318.682 10.1265 318.53 8.10167 318.372C6.29906 318.233 4.43465 318.11 2.83452 317.174C1.01613 316.109 -0.40387 310.883 0.224609 308.72C0.337692 308.325 0.509933 307.936 0.737396 307.586Z" fill="black"/>
<path fill-rule="evenodd" clip-rule="evenodd" d="M45.9501 73.7147C46.0605 67.4895 46.1828 61.1398 47.1071 54.9752C48.0117 48.9483 50.5006 43.5007 54.7764 39.1243C63.8565 29.8282 77.0205 27.5575 89.2745 25.4767L110.223 21.9189C116.616 20.8338 123.435 19.0992 129.892 20.6381C133.074 21.3965 135.776 23.1583 138.245 25.2428C140.626 27.2518 143.185 29.4094 144.799 32.1124C146.414 34.8192 146.97 37.9836 147.495 41.045C148.088 44.4966 148.548 47.9752 148.875 51.4621C149.531 58.4483 149.62 65.4867 149.145 72.4873C148.914 75.8828 148.548 79.2689 148.08 82.6388C147.848 84.3112 147.586 85.9784 147.29 87.639C147.203 88.1294 147.136 88.6725 147.047 89.2194C147.708 91.0996 148.083 93.0468 148.053 94.9862C147.964 100.698 143.145 104.292 138.287 106.224C135.471 107.343 132.527 108.103 129.759 109.353C126.847 110.669 124.865 112.801 122.875 115.233C119.079 119.873 114.794 124.042 109.903 127.52C99.5314 134.896 86.3938 138.384 73.8097 135.736C70.7909 135.101 67.7445 134.115 65.0294 132.628C62.1644 131.059 60.0094 128.785 58.2002 126.096C54.8409 121.105 52.4308 115.485 50.6085 109.766C48.7493 103.932 47.4293 98.0878 46.71 92.0042C45.9922 85.9403 45.841 79.8159 45.9501 73.7147Z" fill="white"/>
<path fill-rule="evenodd" clip-rule="evenodd" d="M112.803 0.23367C104.133 -0.959262 92.167 2.91799 87.8505 10.7361C67.2368 5.87475 41.239 5.71553 24.2503 21.8988C6.52261 41.0957 28.789 66.4071 43.5544 72.1137C42.4789 77.3401 44.1552 110.821 56.0149 125.755C65.4276 138.409 87.3456 144.25 97.4881 129.135L97.567 129.011C98.6543 127.265 97.7182 127.321 96.6032 128.619C86.6711 137.356 73.1666 137.506 62.7612 128.285C43.2598 111.432 45.2702 70.1069 54.5502 46.2C80.9753 43.2966 109.267 51.309 127.52 71.2082L126.285 78.6404C126.075 79.9079 125.835 81.1727 125.654 82.4428C125.537 83.258 125.524 84.0667 126.088 84.7267C127.95 86.9027 131.088 83.6328 133.669 82.3324C134.432 82.2246 135.196 82.1838 135.944 82.2364C148.349 83.8352 145.905 107.908 132.271 103.689C131.126 102.975 130.141 103.192 129.697 104.228C126.448 107.206 124.305 112.517 118.905 117.633C117.001 119.551 115.267 121.156 113.124 122.696C111.866 123.969 108.068 125.268 109.271 127.446C111.549 132.404 124.974 116.831 127.348 112.523C134.784 115.46 143.026 114.463 150.733 113.745C191.391 111.63 185.963 68.7552 152.637 41.686C146.363 37.0658 139.442 33.2969 132.248 30.3966C131.266 30.0006 131.694 28.3871 132.691 28.7887C137.451 30.7081 142.092 32.9925 146.516 35.6366L146.522 34.056C146.529 31.3935 146.487 28.6214 146.025 26.1888C145.794 24.5032 145.405 22.7028 144.807 21.3483C144.067 17.1958 132.479 2.94245 112.803 0.23367ZM136.487 87.7626C135.86 87.167 134.688 87.8783 134.129 87.8599C132.7 88.0558 131.342 88.6593 130.283 89.4048C129.584 89.7966 129.094 90.1648 128.685 90.5027L128.673 90.5C128.677 90.5 128.681 90.5027 128.683 90.504L128.645 90.5303C128.048 90.9537 125.866 93.34 127.245 92.6984C127.348 92.5656 127.453 92.4368 127.559 92.3105C127.571 92.3276 127.587 92.3447 127.605 92.3618L127.528 92.4762C126.356 94.2394 128.38 92.3815 128.691 91.8885C128.706 91.9003 128.722 91.9082 128.739 91.9174L128.334 92.4105C128.277 92.4802 128.232 92.5367 128.196 92.584L128.109 92.6669C126.755 93.9988 126.712 95.1979 128.286 93.2283C128.224 93.3203 128.175 93.4189 128.168 93.507L128.075 93.6254C126.839 95.2189 127.843 94.6535 128.459 93.9725L128.51 93.9133L128.499 93.9304C127.927 94.81 129.061 94.192 129.262 93.7213L129.27 93.7003C129.488 93.5215 129.622 93.3216 129.668 93.2717L129.677 93.2625C130.74 92.1738 132.281 91.2521 133.589 90.8327C133.778 90.7972 133.97 90.7683 134.165 90.7472C134.952 90.5724 135.747 90.4514 136.551 90.387C136.649 90.3751 136.749 90.3028 136.824 90.2095C138.039 90.1687 137.664 89.6704 137.16 89.577L137.151 89.5757L137.251 89.5678C138.031 89.4916 138.564 89.2115 137.775 89.0393L137.675 89.0196C137.687 88.9998 137.698 88.9814 137.709 88.9617C138.384 88.8881 137.943 88.2307 137.568 88.3898C137.726 87.8744 137.005 88.1308 136.915 88.0545C136.846 87.9782 136.761 87.9112 136.712 87.9072C136.495 87.7547 136.6 87.7679 136.487 87.7626ZM132.353 79.4083L132.512 79.5003C132.64 79.5752 132.771 79.6252 132.904 79.6541C132.717 79.7343 132.532 79.8198 132.35 79.9118C132.353 79.8001 132.354 79.687 132.354 79.5752L132.353 79.4083Z" fill="black"/>
<path fill-rule="evenodd" clip-rule="evenodd" d="M77.3373 113.657C79.2043 112.894 80.8702 111.623 82.089 109.999C82.5124 109.435 82.6215 108.839 82.5334 108.293C82.4335 107.681 82.0706 107.125 81.5762 106.752C81.0806 106.378 80.46 106.194 79.8604 106.288C79.3384 106.37 78.8204 106.655 78.4088 107.247L78.3234 107.365C77.5989 108.346 76.6562 109.149 75.5807 109.667C74.5446 110.167 73.3849 110.401 72.1858 110.266C69.9007 110.007 68.3268 108.771 66.6531 107.093C66.4453 106.881 66.2376 106.662 66.0299 106.441C65.8984 106.238 65.7156 106.11 65.5118 106.041C65.287 105.966 65.0319 105.97 64.7979 106.052C64.5731 106.131 64.3719 106.279 64.2365 106.478C64.1089 106.667 64.0353 106.9 64.0589 107.167C64.2128 108.906 65.1213 110.459 66.4125 111.678C67.8469 113.031 69.7482 113.968 71.5376 114.296C73.5085 114.658 75.5176 114.399 77.3373 113.657ZM70.6067 86.8238C68.5096 88.0992 65.3133 91.0733 67.5695 94.2354C70.2268 97.0241 74.0502 93.8265 75.9344 92.3815C77.6831 91.2613 79.6461 94.1421 78.0249 95.4503C64.4074 105.536 58.8799 87.1578 69.5457 85.3236C70.7211 85.1224 71.1563 86.4294 70.6067 86.8238ZM95.0097 75.0912C94.7783 72.2133 90.3973 71.5599 89.9608 74.4076C89.5716 76.9588 90.0305 79.3018 91.1796 81.5987C92.2762 83.7932 95.0347 82.7689 95.2437 80.7717C95.5238 78.0934 95.1543 76.8812 95.0097 75.0912ZM61.6594 73.8171C61.048 73.0168 60.1671 72.4705 59.11 72.7792C55.8085 73.7443 56.7814 78.4327 57.9411 80.7152C58.5709 81.9551 60.6076 82.2693 61.5279 81.178C63.0281 79.3977 63.746 75.8443 61.8396 74.0914C61.787 74.0008 61.7304 73.9094 61.6594 73.8171ZM91.2257 62.4986L90.7037 62.4073C89.0904 62.1282 87.0853 61.86 85.944 63.1574C85.3379 63.8455 85.1302 65.1244 85.944 65.783C87.3746 66.9417 88.9576 66.4927 90.6721 66.5908C92.0856 66.6719 93.4437 66.9058 94.8046 67.2951C97.7918 68.1491 100.226 69.7081 102.776 71.4198C103.11 71.6444 103.452 71.2162 103.293 70.903C101.82 68.0176 98.9673 65.6475 96.1089 64.2028C94.5824 63.4317 92.9139 62.792 91.2257 62.4986ZM64.669 61.2061L64.2693 61.2877C59.9252 62.1961 54.282 64.0105 52.2256 68.2787C52.1467 68.8822 52.2296 69.0116 52.2966 69.096L52.319 69.1242C52.3755 69.1964 52.4189 69.2959 52.6805 69.3781C52.7529 69.3607 52.8265 69.3424 52.9014 69.323C53.8442 69.0758 54.5897 68.7352 55.3115 68.382L56.0951 67.9959C57.0037 67.5503 57.9201 67.1209 58.8917 66.8039C60.9639 66.1276 63.0965 65.6511 65.2607 65.3967C65.7301 65.3416 66.1824 65.1831 66.5387 64.9116C66.8766 64.6539 67.1356 64.2971 67.254 63.8227C67.4065 63.2088 67.3631 62.744 67.0331 62.1902C66.7859 61.7744 66.4309 61.4862 66.0246 61.3206C65.6104 61.1518 65.1384 61.1121 64.669 61.2061Z" fill="black"/>
<path fill-rule="evenodd" clip-rule="evenodd" d="M43.2586 92.559C44.1803 91.3231 45.8343 89.6993 47.5081 89.7874C47.7224 89.7979 47.8026 90.0307 47.6737 90.1871C47.1268 90.8564 46.3786 91.3323 45.8304 92.0147C45.1808 92.8233 44.7128 93.7976 44.4077 94.7837C43.9646 96.2155 43.8424 97.8354 44.2368 99.2922C44.9324 101.859 47.132 103.74 49.5316 104.7C51.9061 105.651 54.7645 105.975 57.0102 104.583C60.3262 102.525 63.1373 99.5604 67.3039 99.5026C68.2795 99.4881 68.9659 99.9352 69.3748 100.573C69.7863 99.9575 70.4647 99.5236 71.4153 99.5118C76.0869 99.4592 79.5725 102.677 83.4946 104.682C86.1439 106.037 89.5716 105.616 92.3064 104.721C94.8848 103.877 97.684 102.181 98.657 99.5026C99.1935 98.0234 99.0725 96.2971 98.5216 94.8389C98.1587 93.8804 97.5999 92.9548 96.907 92.2014C96.1891 91.4204 95.2451 90.9287 94.5101 90.1871C94.3589 90.0359 94.4772 89.8006 94.6757 89.7874C97.7997 89.5757 100.62 93.3072 101.21 96.0144C101.79 98.6795 100.925 101.339 99.1711 103.373C95.6066 107.51 89.0063 108.873 83.8693 107.658C79.7105 106.675 75.7621 104.409 71.4153 104.734C70.4621 104.805 69.7784 104.408 69.3656 103.806C68.9527 104.427 68.2637 104.832 67.3039 104.738C63.253 104.346 59.6372 107.217 55.7059 107.917C52.5741 108.475 49.1923 107.723 46.5101 106.035C43.7056 104.271 41.7321 101.442 41.6019 98.0694C41.527 96.1288 42.0963 94.121 43.2586 92.559Z" fill="black"/>
</svg>
