<svg width="33" height="33" viewBox="0 0 33 33" fill="none" xmlns="http://www.w3.org/2000/svg">
<g clip-path="url(#clip0_1_185)">
<path d="M16.6733 11.1719L19.3366 8.50849L24.4887 13.6606L21.8254 16.3254L16.6733 11.1719ZM28.4762 7.74124L25.2588 4.52374C25.0011 4.26765 24.6526 4.1239 24.2894 4.1239C23.9261 4.1239 23.5776 4.26765 23.32 4.52374L20.8038 7.03999L25.96 12.1962L28.4762 9.62499C28.716 9.36998 28.8495 9.03314 28.8495 8.68312C28.8495 8.33309 28.716 7.99625 28.4762 7.74124ZM2.75 6.87499L11.8663 15.9912L4.125 23.7187V28.875H9.28125L17.0225 21.1475L24.75 28.875L27.5 26.125L5.5 4.12499L2.75 6.87499Z" fill="black"/>
</g>
<defs>
<clipPath id="clip0_1_185">
<rect width="33" height="33" fill="white"/>
</clipPath>
</defs>
</svg>
