<svg width="88" height="129" viewBox="0 0 88 129" fill="none" xmlns="http://www.w3.org/2000/svg">
<path fill-rule="evenodd" clip-rule="evenodd" d="M41.5044 50.0505C44.2645 47.9414 51.1924 46.9932 54.1383 49.0238C57.0471 51.0628 57.3641 54.3606 58.7198 57.3945C59.9988 56.7893 62.1112 57.6562 62.4822 58.8469C62.942 59.4091 62.9627 60.9873 63.2796 61.7422C77.0803 63.9469 79.1753 74.7447 80.8363 87.0034C83.034 99.4426 88.0224 111.855 85.8565 124.655C86.1386 125.065 86.3613 125.463 86.5672 125.936C87.0598 126.778 86.4249 127.969 85.4305 127.923C84.1441 127.81 82.8699 127.655 81.5766 127.607C77.9926 127.482 74.4054 127.497 70.8197 127.542L70.3308 127.549C52.2608 127.774 34.1919 128.219 16.1214 128.337C15.4658 128.338 15.1449 127.748 15.2324 127.166C15.4087 125.994 15.5723 124.822 15.743 123.649C11.4688 124.782 6.92496 125.067 2.66289 123.768C2.36471 123.464 3.35758 123.629 3.51511 123.583C-0.407387 120.893 0.764031 115.226 1.11148 111.144C3.27207 97.1583 4.0337 81.6842 12.3814 69.7503C15.9927 64.8796 21.2873 61.024 27.3711 60.156L27.5399 60.1332C29.3188 59.8948 31.3013 59.8184 32.8567 58.8469C34.6062 57.4454 35.3513 54.8559 37.1917 54.8315C37.7992 54.8235 38.6263 55.5954 39.5158 56.1193C39.582 54.9668 40.2011 53.9943 40.3376 53.1008L40.3487 53.0244C40.4911 51.9828 40.2958 51.0453 41.5044 50.0505ZM71.1626 87.3729C67.2844 84.6687 57.2662 86.0277 57.037 86.179C56.5317 86.5124 56.3142 86.5416 56.0412 86.9747C55.7718 87.0103 55.5019 87.0475 55.2331 87.0862C54.6928 87.263 55.0929 87.9298 55.7168 87.6919C55.3416 89.3159 56.446 90.471 56.8857 92.0764C57.0281 92.5977 56.8905 93.5352 56.8857 94.0676C56.928 94.7471 57.6763 95.5493 57.5514 96.2304C57.1085 98.6527 54.7029 101.016 55.7168 103.365C56.3888 104.691 58.4097 105.368 59.7533 105.819C62.5367 106.891 67.387 105.778 69.0042 103.365C69.8672 102.077 70.8663 98.8295 71.3806 97.8219L71.4949 96.224C71.7759 92.251 72.0262 87.9749 71.1626 87.3729Z" fill="white"/>
<path fill-rule="evenodd" clip-rule="evenodd" d="M36.5159 54.5973C36.7837 54.3595 37.18 54.6584 37.0096 54.9801C36.6276 55.7026 36.2355 56.3869 35.7222 57.0255C35.411 57.413 35.0777 57.7793 34.74 58.1414C35.6068 58.8936 36.3503 59.8279 37.052 60.7039C37.9494 61.8235 38.7982 62.9908 39.8058 64.0154C40.7995 65.0262 41.8986 65.7327 43.2268 66.2036L43.4951 66.297C44.8302 66.7674 46.2563 67.4023 47.0088 68.6705C47.1569 68.9206 46.8585 69.2295 46.6071 69.0735C45.3001 68.2612 43.7639 68.0977 42.341 67.561C40.9668 67.0429 39.7682 66.245 38.7099 65.2263C37.6526 64.2097 36.7652 63.0529 35.8397 61.9206C34.9242 60.801 33.9389 59.8444 32.8559 58.8973C31.1851 60.0254 29.2779 60.5165 27.3385 60.9985L27.1269 61.0511C25.1852 61.5336 23.2539 62.0937 21.4323 62.934C19.8263 63.6746 18.2466 64.559 16.9384 65.7641C15.5496 67.0434 14.4688 68.6769 13.4795 70.2743C11.2666 73.8486 9.71089 77.7642 8.34125 81.7277C6.91673 85.8498 5.72526 90.0548 4.76334 94.3097C4.27413 96.474 3.87683 98.6537 3.55023 100.849C3.39306 101.906 3.25342 102.965 3.13081 104.027C2.99989 105.161 2.96978 106.327 2.62323 107.417C2.47464 107.884 2.12386 108.079 1.7727 108.062L1.70137 108.957C1.60681 110.151 1.51865 111.345 1.48886 112.545C1.43943 114.543 1.46187 116.534 1.60496 118.526L1.62522 118.798C1.73772 120.252 1.98902 121.886 3.07868 122.951C4.20719 124.054 5.94259 124.401 7.46357 124.421C11.006 124.467 14.416 122.787 17.5508 121.314C20.7792 119.796 23.9194 118.112 26.9844 116.284C28.5453 115.354 30.0894 114.392 31.6137 113.403C32.3617 112.917 33.1044 112.423 33.8416 111.922C34.2638 111.634 34.6638 111.319 35.0941 111.064C34.8834 110.867 34.7893 110.558 34.9655 110.288C33.723 109.205 33.2059 107.273 33.1454 105.71C33.0965 104.449 33.2816 103.191 33.4276 101.941C33.5012 101.31 33.5922 100.681 33.6867 100.054C33.724 99.8063 33.7526 99.5408 33.7962 99.2791C30.4408 101.13 26.9915 102.778 23.4508 104.242C21.6359 104.992 19.7978 105.667 17.9342 106.285L17.5565 106.41C15.7909 106.99 13.9829 107.538 12.1575 107.87C12.0599 107.888 11.9806 107.743 12.0848 107.697C13.8637 106.909 15.7042 106.245 17.5099 105.519L17.8066 105.398C17.7725 105.396 17.7371 105.391 17.7002 105.382C16.6413 105.126 15.5907 104.731 14.5521 104.398C13.5881 104.089 12.5052 103.895 11.6042 103.429C11.5349 103.393 11.5737 103.296 11.6412 103.291C12.6539 103.221 13.7532 103.517 14.746 103.692L15.119 103.757C15.7439 103.867 16.3825 103.986 17.0043 104.141C17.0268 103.933 17.1431 103.722 17.3087 103.599C19.1307 102.245 18.9456 99.5106 19.1405 97.4938L19.285 95.9962C19.5392 93.3759 19.808 90.7556 20.2165 88.1549C20.2383 88.0163 20.4524 88.0561 20.4533 88.1872C20.4744 91.4112 20.2319 94.6202 20.1103 97.8389L20.0915 98.3671C20.0243 100.354 19.9716 102.416 18.7252 103.944C18.8995 103.842 19.1351 103.842 19.2763 104.011C19.4498 104.218 19.55 104.45 19.5469 104.679C20.6732 104.205 21.7947 103.719 22.9106 103.222C26.4984 101.627 30.0111 99.8418 33.4308 97.9105C33.7988 97.7024 34.1484 97.8659 34.3305 98.1399L34.3569 98.1362C34.3612 98.1356 34.3659 98.1351 34.3702 98.1351L34.3966 98.134C34.3966 98.134 34.3982 98.134 34.3993 98.134C34.8808 97.8686 35.5364 98.0576 35.9497 98.4446C35.9619 98.4563 35.9719 98.469 35.9831 98.4812C36.5059 98.2455 36.9943 97.9275 37.4372 97.5246C38.3442 96.6996 39.1126 95.6798 39.7819 94.6569C41.0154 92.7728 42.0627 90.678 43.729 89.1274C45.0821 87.8676 46.7601 87.083 48.5206 86.5909C48.5132 86.5394 48.5333 86.4842 48.5688 86.4476C48.6592 86.3547 48.7238 86.3223 48.8402 86.3791C48.8497 86.3834 48.855 86.3897 48.8593 86.3966L49.0307 86.102C49.1244 85.9422 49.2207 85.7808 49.254 85.7389C49.4541 85.4862 49.6599 85.2356 49.8689 84.9904C50.2229 84.5747 50.6262 84.1649 51.0934 83.8766C52.1163 83.2459 53.1916 83.6027 54.2435 83.9478C54.8791 84.1559 55.512 84.3709 56.1464 84.5827L56.212 84.6039C56.6851 84.7563 57.2386 84.89 57.4498 85.3928C57.5334 85.5918 57.5466 85.7983 57.5074 85.9985C62.0001 84.8523 66.9896 85.379 71.3737 86.7247C71.542 86.7767 71.7097 86.9153 71.7452 87.0979C72.2474 89.6832 72.4712 92.3343 72.2442 94.9632C72.0479 97.2332 71.5468 99.457 70.6027 101.535L70.5488 101.652C69.6613 103.578 68.2548 105.952 66.1069 106.555C64.8099 106.919 63.3759 106.705 62.053 106.638C60.7676 106.573 59.4532 106.564 58.18 106.361C57.046 106.18 56.0522 105.67 55.3516 104.744C54.7468 103.946 54.4288 102.981 54.1679 102.021C54.0483 102.059 53.9297 102.1 53.8128 102.146C53.3201 102.339 52.9026 102.651 52.5253 103.017C51.7284 103.792 51.1103 104.733 50.2764 105.472C49.5213 106.141 48.6614 106.661 47.7385 107.062C45.8266 107.891 43.7756 108.222 41.7536 108.661L41.6123 108.692C40.0899 109.027 38.5363 109.439 37.1922 110.235C37.1657 110.469 37.0599 110.689 36.8895 110.833C37.1261 111.057 37.2266 111.41 37.0186 111.742C36.4366 112.669 35.4343 113.196 34.5347 113.789L34.4765 113.827C33.5914 114.416 32.6988 114.993 31.7988 115.559C29.9693 116.708 28.1015 117.795 26.2073 118.833C23.1608 120.504 20.0488 122.079 16.8806 123.508C17.0707 124.447 17.0012 125.415 17.1441 126.361L17.1661 126.495C17.2271 126.846 17.1447 127.139 16.9039 127.369L16.8785 127.392L16.8789 127.389L16.8563 127.41L16.8488 127.417L16.8513 127.414C16.8235 127.44 16.7949 127.464 16.7657 127.484L16.7285 127.508C16.4966 127.649 16.198 127.647 15.9607 127.523L15.9335 127.508L15.8879 127.482C15.5742 127.3 15.3579 126.852 15.488 126.495C15.8079 125.62 15.9287 124.684 16.2241 123.802L15.9898 123.907L15.6809 124.043C12.3407 125.492 8.63038 126.713 4.99099 125.725C3.3829 125.288 1.87991 124.364 1.07531 122.858C0.283574 121.377 0.171656 119.656 0.12964 118.008C0.0777818 115.974 0.186419 113.909 0.453754 111.891C0.633142 110.538 0.850153 109.158 1.18485 107.819C1.01271 107.666 0.886135 107.448 0.852745 107.177C0.694789 105.897 0.971225 104.567 1.14051 103.294C1.30582 102.051 1.48854 100.81 1.69513 99.5737C2.11221 97.0766 2.59688 94.5841 3.16108 92.1162C4.16522 87.7233 5.49126 83.4089 7.0877 79.197L7.22751 78.8302C8.70272 74.9809 10.4108 71.2139 12.7892 67.8323C13.9269 66.2142 15.1296 64.7475 16.7372 63.5811C18.2433 62.4892 19.9422 61.7024 21.6954 61.1015C23.4504 60.5 25.2544 60.0966 27.0902 59.846C28.9546 59.5912 30.9225 59.4351 32.6617 58.6675C32.4417 58.272 32.6306 57.7374 33.0008 57.4916C34.2469 56.6656 35.3994 55.5906 36.5159 54.5973ZM76.4056 90.5257C76.4574 90.4461 76.5818 90.4965 76.5585 90.5905C75.9526 93.0823 75.3837 95.5795 75.0123 98.1186C74.3413 102.702 74.4651 107.345 74.5196 111.963L74.5223 112.201C74.5508 114.688 74.59 117.175 74.6715 119.661C74.7133 120.918 74.7948 122.186 74.7503 123.444C74.726 124.126 74.545 124.771 74.481 125.444C74.4249 126.034 74.4746 126.631 74.5027 127.222C74.5217 127.614 73.9449 127.597 73.9053 127.222L73.8555 126.736C73.7899 126.121 73.7095 125.51 73.5089 124.922C73.2676 124.214 73.1517 123.519 73.0681 122.776C72.9395 121.638 72.8824 120.488 72.8332 119.342L72.7993 118.548C72.5924 113.757 72.5998 108.943 72.9342 104.157L72.9591 103.815C73.2904 99.2908 73.865 94.4021 76.4056 90.5257ZM63.487 62.0109C63.3283 61.9456 63.3838 61.7056 63.5595 61.7475L63.8781 61.8235C66.2138 62.3851 68.5078 62.9935 70.6879 64.0382C72.8697 65.084 74.7165 66.6448 76.1844 68.5638C79.0371 72.2948 80.223 76.8289 81.1591 81.3582C82.1989 86.3918 83.1461 91.4436 84.1954 96.4751L84.3902 97.4126C85.3607 102.099 86.2777 106.788 86.9529 111.53L87.0016 111.874C87.6826 116.75 88.0922 121.795 87.3487 126.684C87.2022 127.652 85.5983 127.411 85.6607 126.455C85.8422 123.693 85.9718 120.944 85.8464 118.176C85.721 115.406 85.4622 112.649 85.0765 109.904C84.7516 107.594 84.2674 105.312 83.8393 103.02L83.7721 102.658C83.4133 100.709 83.044 98.7615 82.6751 96.8143L82.1237 93.8983C81.2972 89.5324 80.4548 85.1624 79.5028 80.8241L79.4467 80.5688C78.5148 76.3946 77.1416 72.0224 74.3471 68.7077C71.5113 65.3441 67.4521 63.6502 63.487 62.0109ZM53.1831 106.284C53.2514 106.132 53.4895 106.148 53.563 106.284C53.8504 106.816 53.8821 107.495 53.9366 108.096L53.9424 108.158C54.0112 108.891 54.0726 109.627 54.1102 110.362C54.1811 111.758 54.215 113.151 54.2107 114.549C54.206 115.981 54.1774 117.411 54.1007 118.841L54.0795 119.224C54.0096 120.467 53.8916 121.853 53.3032 122.94C53.0894 123.335 52.5079 123.218 52.3841 122.819C51.9782 121.511 52.1867 119.961 52.2904 118.621L52.3713 117.576C52.4513 116.531 52.528 115.485 52.5883 114.438C52.6714 113.007 52.7397 111.574 52.8053 110.142C52.827 109.676 52.8503 109.211 52.8746 108.745L52.9122 108.048C52.9439 107.464 52.9413 106.824 53.1831 106.284ZM7.55374 108.138L7.73339 107.964C8.28489 107.422 8.9818 106.588 9.79704 106.64C10.1222 106.66 10.3293 106.931 10.2619 107.252C10.1179 107.938 9.42043 108.294 8.91836 108.713C8.36834 109.172 7.84992 109.662 7.33255 110.158C6.8735 110.597 6.43207 111.048 6.00127 111.514L5.84014 111.689C5.68573 111.858 4.58596 112.856 4.70487 113.116L4.71138 113.127C4.74445 113.177 4.68936 113.245 4.63444 113.228C4.15956 113.077 4.18914 112.669 4.36869 112.254C4.7137 111.459 5.31785 110.723 5.84543 110.045C6.37158 109.367 6.94102 108.736 7.55374 108.138ZM54.9039 88.1941C54.5367 87.323 53.1836 87.341 52.4158 87.3936C50.4817 87.5247 48.3888 88.0158 46.668 88.923C44.8842 89.8632 43.6824 91.3703 42.6072 93.0367L42.5569 93.1152C41.5086 94.7503 40.499 96.6858 38.858 97.8097C38.0219 98.3825 37.0462 98.9059 36.0317 99.1321C35.9624 99.2552 35.8492 99.3524 35.7015 99.3874L35.6327 99.4033C35.3438 99.4676 34.8951 99.5382 34.5077 99.4957C34.5099 99.6863 34.5083 99.8753 34.513 100.055C34.5263 100.572 34.5321 101.091 34.5321 101.608C34.5326 102.691 34.4744 103.777 34.5194 104.86C34.5596 105.818 34.6945 106.819 35.1528 107.675C35.4888 108.304 35.9328 108.719 36.4683 109.117C37.7859 108.311 39.2755 107.819 40.7879 107.45C42.6167 107.003 44.4889 106.705 46.2764 106.1C47.1363 105.808 47.9634 105.427 48.7127 104.908C49.508 104.358 50.115 103.613 50.7399 102.885L50.8378 102.772C51.4755 102.037 52.1713 101.335 53.073 100.937C53.8493 100.595 54.8722 100.534 55.5506 100.003C55.9057 99.725 55.9353 99.3226 55.9729 98.9102C55.5379 98.9723 55.078 98.8725 54.6447 98.8215L54.4203 98.795C54.0107 98.7461 53.6101 98.6925 53.2069 98.5879C53.1323 98.5683 53.1323 98.4552 53.2069 98.4356C53.6837 98.3124 54.1562 98.2599 54.6447 98.202L54.7595 98.1876C55.2013 98.1298 55.6665 98.0417 56.0999 98.1393C56.1777 97.8426 56.2898 97.5586 56.4475 97.2746C56.6687 96.8754 57.0878 96.4231 57.1439 95.957C57.1608 95.8179 57.1286 95.6533 57.0635 95.5301L57.0407 95.4882C57.0132 95.4388 56.9809 95.3889 56.9333 95.3582C56.928 95.3645 56.9164 95.3714 56.8926 95.3788C56.5587 95.4845 56.2676 95.3205 56.1131 95.0678C55.4569 95.1495 54.7415 95.1219 54.1261 95.1495L53.5043 95.1798C52.8397 95.21 52.1449 95.2233 51.5205 95.089C51.4331 95.0699 51.4072 94.9244 51.4945 94.8867C52.2618 94.5576 53.1931 94.4525 54.0149 94.3256C54.4743 94.255 54.9368 94.2009 55.3971 94.1387C55.7035 94.0973 56.0289 94.0289 56.3464 94.0124C57.1428 93.0176 56.7137 91.4478 55.6056 91.0194C55.2019 91.1978 54.8389 91.0942 54.3975 91.056C53.9573 91.0183 53.5159 90.9923 53.0741 90.9944C52.1883 90.9982 51.2495 91.2323 50.3727 91.1314C50.2298 91.115 50.0975 90.9244 50.2393 90.8081C50.9108 90.2581 51.8729 90.0792 52.7254 89.9619L52.9016 89.938C53.1873 89.9003 53.535 89.8457 53.8954 89.8133C53.9768 89.6535 54.1234 89.533 54.343 89.5027C54.4081 89.4937 54.4737 89.4889 54.5393 89.4831L54.5383 89.4767C55.0738 89.4507 55.0505 88.5424 54.9039 88.1941ZM18.2271 105.184C18.2177 105.198 18.2073 105.213 18.1963 105.226L18.1793 105.245L18.2674 105.21L18.2271 105.184ZM64.2527 86.2475C61.9974 86.0043 59.7395 86.0558 57.4778 86.1211C57.2968 86.7146 56.6671 87.2205 56.057 87.2396C56.5348 87.9696 56.584 88.9575 56.2491 89.7315C56.9608 90.0155 57.5736 90.5262 57.9456 91.2535C58.4615 92.2611 58.3938 93.3828 57.8842 94.3139C58.3192 94.7094 58.5758 95.3518 58.5504 95.957C58.5219 96.6317 58.1207 97.2082 57.7879 97.7672C57.4281 98.3713 57.4159 98.9033 57.3053 99.5801C57.1434 100.571 56.4777 101.171 55.6215 101.546L55.667 101.726C55.8877 102.589 56.1623 103.499 56.7936 104.13C57.6053 104.941 58.8648 104.934 59.9374 104.985L59.9892 104.987C60.9714 105.037 61.953 105.095 62.9351 105.15L63.6717 105.192C64.802 105.254 65.8879 105.261 66.8107 104.512C68.3173 103.287 69.3502 101.261 70.0037 99.4676C71.3758 95.7027 71.3923 91.571 70.7625 87.6495C68.6501 86.9662 66.4583 86.4853 64.2527 86.2475ZM45.5001 92.4941L45.5165 92.4952C45.9811 92.5483 46.2997 92.9257 46.4135 93.3732C46.5786 94.0236 46.4976 94.6118 46.8945 95.1989C47.303 95.803 47.5538 96.2866 47.6131 97.0325C47.638 97.3393 47.6263 97.6456 47.6946 97.9461L47.7438 98.1563C47.7962 98.3809 47.839 98.597 47.8131 98.838C47.7893 99.0577 47.6829 99.2292 47.4633 99.2998C46.7474 99.5297 46.1944 98.9999 46.0097 98.3305C45.8499 97.7523 46.0632 97.0633 45.8377 96.5202C45.7128 96.2192 45.4827 95.9676 45.3525 95.6645C45.2234 95.364 45.1588 95.0502 45.1382 94.7238C45.099 94.1064 45.643 93.3642 45.3393 92.8047C45.2747 92.6852 45.3483 92.4904 45.5001 92.4941ZM35.9915 86.1211C36.4762 86.0224 37.026 85.7957 37.5039 85.9841C37.7499 86.0813 37.8711 86.3818 37.6637 86.5909C37.3033 86.9535 36.7795 86.9737 36.2937 87.0591L36.2514 87.0666C35.6772 87.1733 35.102 87.2747 34.5263 87.3702C33.4427 87.5502 32.3567 87.7095 31.267 87.8448C30.1477 87.9839 29.0252 88.1076 27.9012 88.201L27.4661 88.2366C26.5166 88.313 25.5287 88.3704 24.5971 88.2244C24.4617 88.2032 24.4835 88.0051 24.5971 87.9706C25.6177 87.6606 26.7372 87.5778 27.7924 87.4461C28.9141 87.3065 30.034 87.159 31.1509 86.9843C32.2661 86.8091 33.3798 86.6217 34.4892 86.4141C34.9909 86.3207 35.4915 86.223 35.9915 86.1211ZM53.4826 85.1257C53.0572 84.9744 52.5888 84.7509 52.1279 84.8258C51.3331 84.9548 50.6256 85.732 49.9964 86.2437L50.3124 86.1822C51.929 85.8705 54.0694 85.5345 55.4268 86.566C55.4299 86.5601 55.4326 86.5543 55.4368 86.5485C55.5463 86.3812 55.6734 86.2512 55.8115 86.1084C55.8247 86.0956 55.8379 86.0829 55.8501 86.0696L55.9252 85.99L55.7543 85.9305C55.3881 85.8005 54.9542 85.6327 54.8859 85.6083L54.8812 85.6067C54.4139 85.448 53.9467 85.2908 53.4826 85.1257ZM40.201 51.1212C40.1344 50.2628 41.4658 50.2697 41.5319 51.1212C41.6758 52.9803 41.2589 54.8219 40.3614 56.4522C40.355 56.4639 40.3476 56.4745 40.3407 56.4856C40.9022 56.7787 41.4695 57.06 42.05 57.3111C42.7918 57.6328 43.548 57.9253 44.318 58.1738C45.0143 58.3988 45.8721 58.4875 46.4574 58.9552C47.6919 59.9421 47.2279 61.9891 46.9908 63.3163L46.9537 63.5254C46.8352 64.2081 46.75 64.9088 47.0368 65.5645C47.3432 66.2641 47.9623 66.7833 48.5148 67.2845L48.6264 67.3859C49.1164 67.8334 49.6758 68.3775 50.0345 68.9843C50.3626 68.3043 50.8092 67.7484 51.2818 67.1225C51.6189 66.6761 51.3786 66.5285 51.1368 66.0927C50.9034 65.6728 50.7897 65.2252 50.8627 64.7459C50.9971 63.8614 51.7014 63.2228 52.4026 62.7424C53.2307 62.176 54.1552 61.756 55.0114 61.2289C56.7703 60.1454 58.4832 58.9069 60.0263 57.5314C60.0691 57.4937 60.1427 57.5436 60.1088 57.5951C58.8896 59.4563 57.4603 61.0643 55.7035 62.4297C54.9907 62.9829 54.2425 63.4421 53.4889 63.9246L53.2725 64.0642C52.9704 64.2607 52.5931 64.524 52.456 64.8584C52.3184 65.195 52.6121 65.4493 52.7698 65.7285C53.2715 66.614 53.0296 67.4405 52.4348 68.1917L52.4073 68.2262C51.8162 68.9572 51.368 69.6367 51.1543 70.5705C50.6939 72.5766 51.3347 74.6656 52.0057 76.5486L52.0327 76.6229C52.3957 77.6379 52.7815 78.6455 53.0968 79.6764L53.1836 79.9615C53.4694 80.9107 53.7033 81.8461 53.3826 82.8218C53.2736 83.1536 52.8227 83.2322 52.6354 82.9195C51.975 81.8185 51.8104 80.4934 51.3961 79.283C50.9923 78.1029 50.5293 76.9446 50.1393 75.7597C49.6371 74.2345 49.3011 72.5926 49.4837 70.9925C49.4784 70.983 49.4726 70.9745 49.4678 70.9644L49.3403 70.6841C48.9916 69.9244 48.655 69.2614 48.0216 68.6557C47.3607 68.024 46.6431 67.465 46.123 66.7005C44.9937 65.04 45.6922 63.1926 45.8287 61.377L45.8441 61.154C45.8689 60.7771 45.8827 60.2648 45.6372 60.0037C45.361 59.7101 44.7138 59.6352 44.3476 59.5052C43.4009 59.1691 42.4685 58.7774 41.5801 58.307C40.7344 57.8595 39.9153 57.3647 39.1528 56.7856L38.7659 56.4936C38.1563 56.0317 37.524 55.5274 37.1149 54.8983C37.0679 54.8261 37.1478 54.7093 37.2335 54.7439C37.9156 55.022 38.5395 55.4642 39.1776 55.8486C39.1877 55.8252 39.1993 55.8013 39.212 55.778C40.0021 54.343 40.327 52.7531 40.201 51.1212ZM61.999 60.9518C62.271 60.2033 63.5103 60.2611 63.4606 61.1503C63.423 61.8335 63.1341 62.4499 62.87 63.0699L62.8414 63.1363C62.5689 63.7823 62.2535 64.3891 61.8768 64.9816C61.1566 66.1134 60.3126 67.164 59.4114 68.1556C58.5943 69.0544 57.5223 69.6043 56.2867 69.513C55.766 69.4743 55.2405 69.3416 54.7843 69.0804C54.2425 68.7703 53.6535 67.8392 52.9624 68.0648C52.8958 68.0866 52.8333 67.9884 52.891 67.9417C53.689 67.2967 54.5949 68.2968 55.359 68.5378C56.5105 68.9009 57.6921 68.4996 58.433 67.5653C59.2071 66.5901 59.9189 65.4981 60.5692 64.4358C60.8994 63.8965 61.201 63.3369 61.4614 62.7604C61.7238 62.1781 61.7836 61.5453 61.999 60.9518ZM60.1432 56.3471C60.1099 56.2435 60.2374 56.1453 60.3279 56.2043C60.8523 56.5467 61.3069 56.9995 61.7905 57.3966C62.3276 57.8367 62.8679 58.2683 63.4172 58.693C64.2173 59.3119 63.2891 60.4517 62.5848 59.7754C61.6207 58.8501 60.5644 57.6402 60.1432 56.3471ZM57.264 52.725C57.4768 51.9005 58.7372 52.2408 58.5536 53.0557L58.5473 53.0801C58.1996 54.4264 58.6949 55.7966 59.7527 56.6693L59.7913 56.7012C60.4602 57.2384 59.5125 58.1775 58.8499 57.6456C57.4043 56.484 56.8026 54.5108 57.264 52.725Z" fill="black"/>
<path fill-rule="evenodd" clip-rule="evenodd" d="M69.3835 29.9693C69.3391 27.4558 69.2899 24.8921 68.9179 22.4031C68.5538 19.9698 67.5521 17.7702 65.8313 16.0032C62.1763 12.2499 56.8788 11.3331 51.947 10.4929L43.5158 9.05646C40.943 8.61834 38.1987 7.91797 35.6 8.53934C34.3194 8.84555 33.2318 9.55685 32.2379 10.3985C31.2798 11.2096 30.2497 12.0808 29.6005 13.1721C28.9502 14.265 28.7265 15.5427 28.5151 16.7787C28.2766 18.1724 28.0914 19.5769 27.9598 20.9847C27.6961 23.8054 27.6601 26.6472 27.8514 29.4738C27.944 30.8447 28.0915 32.2119 28.2797 33.5725C28.3731 34.2477 28.4786 34.9209 28.5978 35.5913C28.6329 35.7893 28.6596 36.0086 28.6957 36.2294C28.4296 36.9886 28.2785 37.7748 28.2907 38.5578C28.3266 40.8639 30.2659 42.3153 32.221 43.0951C33.3546 43.5469 34.5395 43.8537 35.6534 44.3586C36.8255 44.89 37.623 45.7505 38.4241 46.7326C39.9518 48.606 41.6764 50.2894 43.6449 51.6935C47.8189 54.6717 53.1064 56.08 58.171 55.0109C59.386 54.7545 60.6121 54.3563 61.7048 53.7559C62.8579 53.1226 63.7252 52.2042 64.4533 51.1186C65.8053 49.1034 66.7753 46.8345 67.5087 44.5253C68.257 42.1698 68.7882 39.8101 69.0777 37.3538C69.3666 34.9055 69.4275 32.4327 69.3835 29.9693Z" fill="white"/>
<path fill-rule="evenodd" clip-rule="evenodd" d="M42.4775 0.300915C45.9669 -0.180738 50.7828 1.38473 52.5201 4.54135C60.8163 2.57853 71.2795 2.51425 78.1169 9.04834C85.2517 16.7992 76.2902 27.0188 70.3477 29.3229C70.7805 31.4331 70.1059 44.951 65.3328 50.9811C61.5445 56.0901 52.7233 58.4482 48.6413 52.3454L48.6095 52.2955C48.1719 51.5905 48.5487 51.6133 48.9974 52.1373C52.9947 55.6649 58.4298 55.7254 62.6176 52.0025C70.4662 45.1978 69.6571 28.5126 65.9223 18.8601C55.2871 17.6878 43.9005 20.9229 36.5546 28.9573L37.0515 31.9581C37.1361 32.4698 37.2324 32.9805 37.3055 33.4934C37.3526 33.8225 37.3578 34.149 37.1308 34.4155C36.3815 35.2941 35.1184 33.9738 34.0797 33.4488C33.7726 33.4052 33.4653 33.3888 33.1639 33.41C28.1713 34.0555 29.155 43.7751 34.6422 42.0716C35.1031 41.7833 35.4994 41.8709 35.6783 42.2892C36.9858 43.4917 37.8484 45.6358 40.0217 47.7014C40.7879 48.4759 41.4859 49.1241 42.3484 49.7458C42.8548 50.2596 44.3831 50.7841 43.8989 51.6638C42.9824 53.6657 37.579 47.3776 36.6239 45.6385C33.6309 46.8244 30.3139 46.4215 27.2121 46.1316C10.8486 45.278 13.0331 27.9669 26.4459 17.0375C28.9707 15.1721 31.7563 13.6504 34.6517 12.4794C35.047 12.3195 34.8745 11.668 34.4734 11.8302C32.5577 12.6051 30.6899 13.5275 28.9094 14.5951L28.9067 13.9569C28.9041 12.8819 28.9209 11.7626 29.107 10.7804C29.1999 10.0999 29.3564 9.37296 29.5972 8.82606C29.8949 7.14949 34.5586 1.3946 42.4775 0.300915ZM32.9454 35.6412C33.1981 35.4008 33.6697 35.688 33.8947 35.6805C34.4697 35.7596 35.0163 36.0033 35.4423 36.3043C35.7238 36.4625 35.9212 36.6111 36.0857 36.7476L36.0905 36.7465C36.0889 36.7465 36.0873 36.7476 36.0863 36.7481L36.1016 36.7587C36.3418 36.9296 37.2203 37.8932 36.6652 37.6341C36.6239 37.5805 36.5816 37.5285 36.5387 37.4775C36.5339 37.4844 36.5276 37.4913 36.5202 37.4982L36.5514 37.5444C37.0229 38.2563 36.2085 37.5062 36.0831 37.3071C36.0773 37.3119 36.0709 37.315 36.064 37.3188L36.227 37.5178C36.2498 37.546 36.2678 37.5688 36.2826 37.5879L36.3175 37.6214C36.8625 38.1591 36.8795 38.6433 36.2461 37.848C36.2709 37.8852 36.291 37.925 36.2937 37.9606L36.3313 38.0084C36.8287 38.6518 36.4244 38.4235 36.1767 38.1485L36.1561 38.1246L36.1603 38.1315C36.3905 38.4867 35.9344 38.2372 35.8534 38.0471L35.8502 38.0386C35.7624 37.9664 35.7084 37.8857 35.6899 37.8656L35.6862 37.8618C35.2586 37.4223 34.6385 37.0501 34.1119 36.8808C34.0357 36.8665 33.9585 36.8548 33.8802 36.8463C33.5635 36.7757 33.2434 36.7268 32.9198 36.7008C32.8802 36.6961 32.8401 36.6669 32.8101 36.6292C32.3209 36.6127 32.4719 36.4115 32.6749 36.3738L32.6784 36.3733L32.6382 36.3701C32.3242 36.3393 32.1098 36.2262 32.4272 36.1567L32.4675 36.1487C32.4626 36.1408 32.4582 36.1333 32.4539 36.1254C32.1821 36.0957 32.3595 35.8302 32.5104 35.8945C32.4469 35.6864 32.7371 35.7899 32.7734 35.7591C32.801 35.7283 32.8353 35.7012 32.8551 35.6996C32.9425 35.6381 32.9001 35.6434 32.9454 35.6412ZM34.6094 32.2681L34.5453 32.3053C34.494 32.3355 34.4411 32.3557 34.3876 32.3674C34.4628 32.3998 34.5374 32.4343 34.6104 32.4714C34.6094 32.4263 34.6088 32.3807 34.6088 32.3355L34.6094 32.2681Z" fill="black"/>
<path fill-rule="evenodd" clip-rule="evenodd" d="M56.7513 46.0961C55.9999 45.7882 55.3294 45.2748 54.8389 44.6192C54.6685 44.3915 54.6246 44.151 54.66 43.9307C54.7002 43.6833 54.8463 43.4587 55.0452 43.3085C55.2447 43.1572 55.4945 43.0829 55.7358 43.1211C55.9459 43.154 56.1544 43.2692 56.32 43.5081L56.3544 43.5559C56.646 43.9519 57.0254 44.2763 57.4583 44.4854C57.8752 44.6872 58.342 44.7817 58.8246 44.727C59.7443 44.6224 60.3777 44.1234 61.0513 43.446C61.1349 43.3605 61.2185 43.2719 61.3021 43.1827C61.355 43.1009 61.4286 43.0489 61.5106 43.0213C61.6011 42.9911 61.7038 42.9926 61.7979 43.0256C61.8884 43.0574 61.9694 43.1174 62.0239 43.1976C62.0752 43.274 62.1049 43.368 62.0953 43.4757C62.0334 44.1781 61.6678 44.805 61.1481 45.2971C60.5708 45.8434 59.8056 46.2219 59.0854 46.3541C58.2922 46.5006 57.4836 46.396 56.7513 46.0961ZM59.4601 35.2622C60.3041 35.7771 61.5905 36.9779 60.6825 38.2547C59.613 39.3806 58.0742 38.0896 57.3159 37.5062C56.6121 37.0539 55.8221 38.217 56.4745 38.7452C61.9551 42.8175 64.1797 35.397 59.8871 34.6565C59.4141 34.5753 59.2389 35.1029 59.4601 35.2622ZM49.6388 30.5251C49.7319 29.3631 51.4951 29.0993 51.6708 30.2491C51.8274 31.2791 51.6427 32.2251 51.1802 33.1525C50.7389 34.0386 49.6287 33.625 49.5446 32.8186C49.4319 31.7373 49.5805 31.2478 49.6388 30.5251ZM63.0611 30.0107C63.3071 29.6875 63.6617 29.467 64.0871 29.5916C65.4159 29.9813 65.0243 31.8742 64.5576 32.7958C64.3041 33.2964 63.4844 33.4233 63.114 32.9827C62.5102 32.2639 62.2213 30.8292 62.9886 30.1214C63.0097 30.0848 63.0325 30.0479 63.0611 30.0107ZM51.1617 25.4407L51.3718 25.4039C52.0211 25.2912 52.828 25.1829 53.2874 25.7067C53.5313 25.9845 53.6149 26.5009 53.2874 26.7668C52.7116 27.2347 52.0745 27.0534 51.3845 27.093C50.8156 27.1257 50.269 27.2202 49.7213 27.3774C48.519 27.7222 47.5396 28.3516 46.513 29.0427C46.3786 29.1334 46.241 28.9605 46.305 28.8341C46.8977 27.6691 48.046 26.7122 49.1964 26.1288C49.8107 25.8175 50.4823 25.5592 51.1617 25.4407ZM61.8498 24.9189L62.0107 24.9519C63.759 25.3186 66.0302 26.0512 66.8578 27.7745C66.8896 28.0182 66.8563 28.0704 66.8293 28.1045L66.8203 28.1159C66.7975 28.145 66.7801 28.1852 66.6747 28.2184C66.6456 28.2114 66.616 28.204 66.5858 28.1961C66.2064 28.0963 65.9064 27.9588 65.6159 27.8162L65.3005 27.6603C64.9348 27.4804 64.566 27.307 64.175 27.179C63.341 26.906 62.4827 26.7136 61.6117 26.6109C61.4228 26.5886 61.2407 26.5246 61.0973 26.415C60.9613 26.311 60.8571 26.1669 60.8095 25.9754C60.7481 25.7275 60.7661 25.5398 60.8984 25.3162C60.9978 25.1483 61.1407 25.032 61.3042 24.9651C61.4709 24.897 61.6609 24.8809 61.8498 24.9189Z" fill="black"/>
<path fill-rule="evenodd" clip-rule="evenodd" d="M70.4667 37.5778C70.0958 37.0788 69.4301 36.4232 68.7565 36.4588C68.6702 36.463 68.6379 36.557 68.6898 36.6202C68.9099 36.8904 69.211 37.0825 69.4317 37.3581C69.6931 37.6845 69.8815 38.0779 70.0043 38.4761C70.1826 39.0542 70.2318 39.7082 70.073 40.2964C69.7931 41.3326 68.9078 42.0923 67.9421 42.4798C66.9864 42.8636 65.836 42.9948 64.9322 42.4326C63.5976 41.6018 62.4663 40.4047 60.7893 40.3813C60.3967 40.3755 60.1205 40.556 59.9559 40.8134C59.7903 40.565 59.5172 40.3898 59.1346 40.385C57.2545 40.3638 55.8517 41.6628 54.2737 42.4724C53.2069 43.0197 51.8274 42.8498 50.7267 42.4883C49.689 42.1475 48.5624 41.4627 48.1708 40.3813C47.9549 39.7841 48.0036 39.0871 48.2253 38.4984C48.3714 38.1114 48.5963 37.7376 48.8752 37.4334C49.1641 37.1181 49.544 36.9196 49.8398 36.6202C49.9007 36.5591 49.8531 36.4641 49.7732 36.4588C48.5159 36.3733 47.3808 37.8799 47.1432 38.9729C46.9098 40.049 47.258 41.1229 47.9639 41.9442C49.3985 43.6143 52.0549 44.1648 54.1224 43.6743C55.7961 43.2772 57.3852 42.3625 59.1346 42.4936C59.5183 42.5223 59.7935 42.362 59.9596 42.1188C60.1258 42.3694 60.4031 42.5329 60.7893 42.4952C62.4197 42.337 63.8749 43.4959 65.4577 43.7789C66.7176 44.0039 68.0786 43.7003 69.1581 43.0187C70.2868 42.3068 71.0811 41.1644 71.1335 39.8027C71.1637 39.0191 70.9345 38.2085 70.4667 37.5778Z" fill="black"/>
</svg>
