<svg width="51" height="163" viewBox="0 0 51 163" fill="none" xmlns="http://www.w3.org/2000/svg">
<path d="M23.9607 162.808C30.5596 162.837 37.2602 162.794 43.5684 160.89C44.0044 160.759 44.4406 160.613 44.7748 160.323C45.1237 160.032 45.3416 159.567 45.2254 159.131C45.0219 158.418 44.0917 158.259 43.3505 158.215C33.0598 157.735 22.58 155.773 12.5945 158.273C11.7078 158.491 10.7775 158.782 10.1089 159.407C9.45487 160.032 8.98976 161.398 9.8183 162.067C10.6759 162.75 13.1613 162.503 14.2224 162.561C17.4782 162.764 20.7195 162.794 23.9607 162.808Z" fill="url(#paint0_linear_16_6)"/>
<path opacity="0.22" d="M23.9566 162.808C30.5554 162.837 37.256 162.794 43.5642 160.89C44.0003 160.759 44.4365 160.613 44.7708 160.323C45.1196 160.032 45.3376 159.567 45.2212 159.131C45.0177 158.418 44.0876 158.259 43.3463 158.215C33.0556 157.735 22.5758 155.773 12.5904 158.273C11.7037 158.491 10.7734 158.782 10.1048 159.407C9.45072 160.032 8.98561 161.398 9.81415 162.067C10.6717 162.75 13.1573 162.503 14.2183 162.561C17.4741 162.764 20.7153 162.794 23.9566 162.808Z" fill="url(#paint1_linear_16_6)"/>
<path d="M36.2702 92.7724C36.3284 92.3512 36.3867 91.9438 36.4303 91.5226C36.6193 90.0395 36.7645 88.3832 35.8198 87.2346C35.5 86.8421 31.9098 87.0748 31.2557 87.0021C29.904 86.8567 28.8138 86.5078 27.5638 86.1299C25.1365 85.3887 21.9243 85.2723 19.4242 85.7666C17.2005 86.2171 15.2092 86.4207 12.9417 86.6533C12.1859 86.7259 11.4446 86.9293 10.7033 87.1328C8.05795 87.8744 8.21793 87.9324 8.62491 90.6359C8.97377 92.9319 9.26439 95.2436 9.48238 97.5544C9.90398 101.973 9.54046 106.566 10.1219 110.942C10.6742 115.099 11.0086 119.299 11.3284 123.529C12.0842 133.819 12.8981 144.095 13.9737 154.357C13.2905 155.04 12.6657 155.825 12.0988 156.639C11.2412 157.831 10.3982 159.284 10.6162 160.825C12.1714 161.522 13.872 160.534 15.3109 159.561L17.2149 158.282C21.5319 155.374 19.7877 147.773 19.9475 142.511C20.1656 135.592 20.3837 128.659 20.6162 121.741C20.6598 120.302 19.9912 105.142 21.997 105.229C23.1743 105.287 23.683 126.29 23.7556 128.528C23.9591 134.372 24.0173 140.215 23.9591 146.072C23.9011 151.058 22.2877 156.435 26.5028 159.27L28.4069 160.549C29.8459 161.522 31.5464 162.511 33.1017 161.814C33.3197 160.272 32.4766 158.819 31.6192 157.627C31.0377 156.813 30.4272 156.029 29.7441 155.345C29.4243 155.04 30.1948 150.898 30.2529 150.287C30.4274 148.398 30.6018 146.494 30.7616 144.604C31.1395 140.243 31.4737 135.869 31.7644 131.493C32.593 118.514 34.5551 105.636 36.2702 92.7724Z" fill="#999999"/>
<path d="M23.817 29.1553C25.2995 29.1408 26.6513 28.2832 27.6833 27.2221C31.5206 23.2541 31.4041 17.0331 31.0262 11.5389C30.9826 10.9576 30.9392 10.3471 30.6049 9.85289C30.0962 9.11161 29.0932 8.90812 28.2066 8.80637C24.3839 8.80637 20.6048 8.98079 16.7531 9.16974C16.4332 9.18427 16.0844 9.21335 15.8228 9.40231C15.5466 9.62033 15.4448 9.98368 15.3866 10.318C15.1105 11.9023 15.6338 13.5593 15.6047 15.1726C15.5757 16.8296 15.6483 18.5012 15.939 20.1436C16.5059 23.3268 17.9594 26.2919 20.7356 28.0943C21.6658 28.7047 22.7123 29.1698 23.817 29.1553Z" fill="#F2E7D6"/>
<path d="M39.6627 48.7171C39.9534 48.659 40.2441 48.6735 40.5348 48.5863C40.8255 48.4991 41.0727 48.3247 41.3198 48.1503C43.6744 46.5078 46.3488 45.1125 49.2121 45.0253C49.5464 45.0107 49.8954 45.0252 50.2006 45.1705C50.593 45.3595 50.8401 45.7665 50.9419 46.188C51.1745 47.1473 50.6801 48.1502 49.9535 48.8188C49.2267 49.4874 48.2965 49.8653 47.3807 50.2288C45.6947 50.9119 43.9941 51.5951 42.308 52.2782C40.9999 52.8014 39.6192 53.3392 38.2384 53.1067C37.9041 52.2782 37.5988 51.377 37.8022 50.5049C38.0057 49.6038 38.7761 48.877 39.6627 48.7171Z" fill="#F2E7D6"/>
<path d="M38.4692 55.7676C40.5768 55.1134 42.699 54.5029 44.8355 53.9506C43.8036 51.2763 42.7862 48.5873 41.7542 45.9128C40.6059 46.4215 39.4431 46.9303 38.2948 47.439C38.2657 46.5814 38.2368 45.7239 38.1932 44.8954C38.0188 41.0001 37.8152 36.9884 36.3035 33.4709C35.0972 30.6657 34.8502 29.9826 32.4374 27.9767C28.9635 29.8953 20.068 30.6075 17.1029 27.9767C14.6465 29.343 14.7337 27.9622 12.8878 30.8546C8.39648 37.8751 7.85877 50.0844 7.16109 55.3896C6.15818 63.0786 1.53598 84.5176 6.52147 90.7971C9.07966 94.0232 28.8036 93.3844 40.7368 89.7942C40.0973 75.8112 38.6728 71.8723 38.4692 55.7676Z" fill="#4A4E31"/>
<path d="M25.8677 33.6305C20.1118 33.2961 14.3123 32.9763 8.58559 33.6741C7.87338 33.7612 7.32102 34.3717 7.27741 35.0984C7.01578 40.7816 7.05932 46.4793 7.39363 52.1624C7.43723 52.991 8.17867 53.6159 9.00712 53.5433C17.3211 52.8455 25.9548 52.8165 34.2978 52.8311C35.1263 52.8311 35.7949 52.1624 35.7804 51.334C35.7223 46.2467 35.4026 40.6362 35.3445 35.549C35.3299 34.7641 34.7339 34.1246 33.949 34.081L25.8677 33.6305Z" fill="#EDEDED"/>
<path d="M6.52325 28.3104C6.29069 27.0604 6.07271 25.7813 5.65119 24.575C5.4477 24.0227 4.59016 24.2697 4.76458 24.8511C5.14249 26.072 5.62222 27.2494 5.92745 28.4994C6.01465 28.8919 6.59593 28.6883 6.52325 28.3104Z" fill="#666666"/>
<path d="M4.74583 29.3258C3.83013 28.8025 2.8708 28.4537 1.80975 28.352C1.21382 28.2938 0.981224 29.1659 1.59169 29.2677C2.58006 29.4275 3.5539 29.6455 4.48413 29.9798C4.87658 30.1252 5.08014 29.5147 4.74583 29.3258Z" fill="#666666"/>
<path d="M4.61679 31.5077C3.25051 31.4205 1.78247 31.6966 0.430725 31.9292C-0.150673 32.0309 -0.15063 32.9321 0.474372 32.8595C1.85519 32.7141 3.39579 32.5978 4.73301 32.1472C5.09638 32.0309 4.98017 31.5367 4.61679 31.5077Z" fill="#666666"/>
<path d="M9.29791 55.8273C8.51299 56.6558 7.43737 57.5569 6.36179 57.1645C6.01295 57.0337 5.7223 56.7721 5.50428 56.4814C4.67578 55.3622 4.85021 53.7779 5.32987 52.4697C6.14383 50.275 7.71351 48.4581 9.23967 46.6993C10.5042 45.2459 12.205 43.647 14.0654 44.1557C14.4142 44.2575 14.7776 44.4464 14.952 44.7662C15.1119 45.0569 15.1118 45.4203 15.0828 45.7691C14.763 49.679 12.0159 52.9494 9.29791 55.8273Z" fill="#F2E7D6"/>
<path d="M2.0882 60.2762C1.81204 59.8983 1.84109 59.375 1.8847 58.8954C2.33528 55.0145 3.86146 51.2646 6.25972 48.1831C7.75683 50.407 9.48638 52.471 11.4341 54.3024C9.31198 56.5263 8.12012 57.689 6.17243 59.6658C5.76545 60.0728 4.21025 60.407 3.65792 60.6105C3.13465 60.8285 2.43705 60.7413 2.0882 60.2762Z" fill="#4A4E31"/>
<path d="M20.575 9.46251C19.6739 9.66602 18.9327 10.3055 18.453 11.0613C17.3048 12.8491 17.4791 15.073 17.0284 17.1079C16.7087 18.5468 16.0693 19.9276 15.1535 21.1195C14.6884 20.2329 14.3541 19.2881 14.0488 18.3434C13.1478 15.4945 12.5518 12.5003 12.9588 9.54972C13.3657 6.59913 14.8919 3.69212 17.5227 2.03513C18.3803 1.49734 19.4123 1.09037 20.4152 1.32293C21.7524 1.62817 22.5227 2.93632 22.9879 4.14271C23.5402 5.5526 23.9035 7.12236 23.6274 8.61945C23.4966 9.36074 23.3802 10.0875 22.668 10.0148C21.8976 9.92761 21.578 9.24448 20.575 9.46251Z" fill="#F4D787"/>
<path d="M29.4407 19.5342C29.0337 18.5894 28.9174 17.5574 28.6994 16.5545C28.3941 15.1882 27.8853 13.851 27.2023 12.6301C26.8389 11.976 26.4028 11.3364 25.8069 10.8859C25.211 10.4353 24.4116 10.1882 23.6849 10.3917C23.4378 10.4644 23.2053 10.5806 22.9581 10.5225C22.6384 10.4498 22.4493 10.1301 22.2894 9.83936C21.8679 9.03994 21.4464 8.21147 21.3737 7.3103C21.3301 6.75797 21.4319 6.20564 21.5772 5.66784C22.1731 3.44399 23.8301 1.32189 26.0976 0.943986C28.0307 0.638752 29.993 1.67075 31.2285 3.18238C32.4639 4.69401 33.089 6.61264 33.5251 8.51672C33.7721 9.62137 33.9756 10.7551 33.9319 11.8888C33.8302 14.1417 32.7982 16.1912 32.1878 18.3133C32.057 18.7784 31.8825 21.2493 31.6209 21.3947C30.8651 21.8452 29.6587 20.0284 29.4407 19.5342Z" fill="#F4D787"/>
<path d="M23.6982 42.1677C23.6691 42.0515 23.5673 41.9352 23.4365 41.906C22.7823 41.7752 21.954 42.0514 21.3144 42.2259C20.5004 42.4293 19.7301 42.7201 18.9597 43.0398C18.6836 43.1561 18.7418 43.563 18.9597 43.6939C20.1371 44.4642 21.3871 45.1183 22.6372 45.7724C22.6953 45.8014 22.7534 45.8014 22.797 45.7724C22.7388 46.2375 23.451 46.4265 23.5238 45.9614C23.6982 44.8276 24.0033 43.3014 23.6982 42.1677ZM23.0149 43.9701C22.9858 44.4642 22.9277 44.9584 22.855 45.4381C21.8666 44.8276 20.9074 44.1444 19.9626 43.4613C20.4277 43.2869 20.9074 43.1125 21.3869 42.9817C21.8376 42.8509 22.5208 42.6183 23.044 42.6183C23.1021 43.0543 23.0295 43.5776 23.0149 43.9701Z" fill="white"/>
<defs>
<linearGradient id="paint0_linear_16_6" x1="9.38717" y1="159.925" x2="45.2617" y2="159.925" gradientUnits="userSpaceOnUse">
<stop stop-color="white"/>
<stop offset="1"/>
</linearGradient>
<linearGradient id="paint1_linear_16_6" x1="9.38302" y1="159.925" x2="45.2576" y2="159.925" gradientUnits="userSpaceOnUse">
<stop/>
<stop offset="1"/>
</linearGradient>
</defs>
</svg>
